  0
SECTION
  2
HEADER
  9
$ACADVER
  1
AC1014
  9
$HANDSEED
  5
FFFF
  9
$MEASUREMENT
 70
     1
  0
ENDSEC
  0
SECTION
  2
TABLES
  0
TABLE
  2
VPORT
  5
8
330
0
100
AcDbSymbolTable
 70
     4
  0
VPORT
  5
2E
330
8
100
AcDbSymbolTableRecord
100
AcDbViewportTableRecord
  2
*ACTIVE
 70
     0
 10
0.0
 20
0.0
 11
1.0
 21
1.0
 12
210.0
 22
148.5
 13
0.0
 23
0.0
 14
10.0
 24
10.0
 15
10.0
 25
10.0
 16
0.0
 26
0.0
 36
1.0
 17
0.0
 27
0.0
 37
0.0
 40
341.0
 41
1.24
 42
50.0
 43
0.0
 44
0.0
 50
0.0
 51
0.0
 71
     0
 72
   100
 73
     1
 74
     3
 75
     0
 76
     0
 77
     0
 78
     0
  0
ENDTAB
  0
TABLE
  2
LTYPE
  5
5
330
0
100
AcDbSymbolTable
 70
     1
  0
LTYPE
  5
14
330
5
100
AcDbSymbolTableRecord
100
AcDbLinetypeTableRecord
  2
BYBLOCK
 70
     0
  3

 72
    65
 73
     0
 40
0.0
  0
LTYPE
  5
15
330
5
100
AcDbSymbolTableRecord
100
AcDbLinetypeTableRecord
  2
BYLAYER
 70
     0
  3

 72
    65
 73
     0
 40
0.0
  0
LTYPE
  5
16
330
5
100
AcDbSymbolTableRecord
100
AcDbLinetypeTableRecord
  2
CONTINUOUS
 70
     0
  3
Solid line
 72
    65
 73
     0
 40
0.0
  0
ENDTAB
  0
TABLE
  2
LAYER
  5
2
100
AcDbSymbolTable
 70
2
  0
LAYER
  5
50
100
AcDbSymbolTableRecord
100
AcDbLayerTableRecord
  2
0
 70
0
  6
CONTINUOUS
  0
LAYER
  5
51
100
AcDbSymbolTableRecord
100
AcDbLayerTableRecord
  2
Layer_1
 70
0
  6
CONTINUOUS
  0
ENDTAB
  0
TABLE
  2
STYLE
  5
3
330
0
100
AcDbSymbolTable
 70
     1
  0
STYLE
  5
11
330
3
100
AcDbSymbolTableRecord
100
AcDbTextStyleTableRecord
  2
STANDARD
 70
     0
 40
0.0
 41
1.0
 50
0.0
 71
     0
 42
2.5
  3
txt
  4

  0
ENDTAB
  0
TABLE
  2
VIEW
  5
6
330
0
100
AcDbSymbolTable
 70
     0
  0
ENDTAB
  0
TABLE
  2
UCS
  5
7
330
0
100
AcDbSymbolTable
 70
     0
  0
ENDTAB
  0
TABLE
  2
APPID
  5
9
330
0
100
AcDbSymbolTable
 70
     2
  0
APPID
  5
12
330
9
100
AcDbSymbolTableRecord
100
AcDbRegAppTableRecord
  2
ACAD
 70
     0
  0
ENDTAB
  0
TABLE
  2
DIMSTYLE
  5
A
330
0
100
AcDbSymbolTable
 70
     1
  0
DIMSTYLE
105
27
330
A
100
AcDbSymbolTableRecord
100
AcDbDimStyleTableRecord
  2
ISO-25
 70
     0
  3

  4

  5

  6

  7

 40
1.0
 41
2.5
 42
0.625
 43
3.75
 44
1.25
 45
0.0
 46
0.0
 47
0.0
 48
0.0
140
2.5
141
2.5
142
0.0
143
0.03937007874016
144
1.0
145
0.0
146
1.0
147
0.625
 71
     0
 72
     0
 73
     0
 74
     0
 75
     0
 76
     0
 77
     1
 78
     8
170
     0
171
     3
172
     1
173
     0
174
     0
175
     0
176
     0
177
     0
178
     0
270
     2
271
     2
272
     2
273
     2
274
     3
340
11
275
     0
280
     0
281
     0
282
     0
283
     0
284
     8
285
     0
286
     0
287
     3
288
     0
  0
ENDTAB
  0
TABLE
  2
BLOCK_RECORD
  5
1
330
0
100
AcDbSymbolTable
 70
     1
  0
BLOCK_RECORD
  5
1F
330
1
100
AcDbSymbolTableRecord
100
AcDbBlockTableRecord
  2
*MODEL_SPACE
  0
BLOCK_RECORD
  5
1B
330
1
100
AcDbSymbolTableRecord
100
AcDbBlockTableRecord
  2
*PAPER_SPACE
  0
ENDTAB
  0
ENDSEC
  0
SECTION
  2
BLOCKS
  0
BLOCK
  5
20
330
1F
100
AcDbEntity
  8
0
100
AcDbBlockBegin
  2
*MODEL_SPACE
 70
     0
 10
0.0
 20
0.0
 30
0.0
  3
*MODEL_SPACE
  1

  0
ENDBLK
  5
21
330
1F
100
AcDbEntity
  8
0
100
AcDbBlockEnd
  0
BLOCK
  5
1C
330
1B
100
AcDbEntity
 67
     1
  8
0
100
AcDbBlockBegin
  2
*PAPER_SPACE
  1

  0
ENDBLK
  5
1D
330
1B
100
AcDbEntity
 67
     1
  8
0
100
AcDbBlockEnd
  0
ENDSEC
  0
SECTION
  2
ENTITIES
  0
LINE
  5
100
100
AcDbEntity
  8
Layer_1
 62
3
100
AcDbLine
 10
8.212904
 20
81.024776
 30
0.0
 11
8.212904
 21
15.137280
 31
0.0
  0
LINE
  5
101
100
AcDbEntity
  8
Layer_1
 62
3
100
AcDbLine
 10
8.212904
 20
15.137280
 30
0.0
 11
10.747034
 21
15.137280
 31
0.0
  0
LINE
  5
102
100
AcDbEntity
  8
Layer_1
 62
3
100
AcDbLine
 10
10.747034
 20
15.137280
 30
0.0
 11
13.281164
 21
12.603142
 31
0.0
  0
LINE
  5
103
100
AcDbEntity
  8
Layer_1
 62
3
100
AcDbLine
 10
13.281164
 20
12.603142
 30
0.0
 11
46.224938
 21
12.603142
 31
0.0
  0
LINE
  5
104
100
AcDbEntity
  8
Layer_1
 62
3
100
AcDbLine
 10
46.224938
 20
12.603142
 30
0.0
 11
48.759070
 21
15.137280
 31
0.0
  0
LINE
  5
105
100
AcDbEntity
  8
Layer_1
 62
3
100
AcDbLine
 10
48.759070
 20
15.137280
 30
0.0
 11
60.162677
 21
15.137280
 31
0.0
  0
LINE
  5
106
100
AcDbEntity
  8
Layer_1
 62
3
100
AcDbLine
 10
60.162677
 20
15.137280
 30
0.0
 11
61.429742
 21
16.404345
 31
0.0
  0
LINE
  5
107
100
AcDbEntity
  8
Layer_1
 62
3
100
AcDbLine
 10
61.429742
 20
16.404345
 30
0.0
 11
61.429736
 21
81.024776
 31
0.0
  0
LINE
  5
108
100
AcDbEntity
  8
Layer_1
 62
3
100
AcDbLine
 10
61.429736
 20
81.024776
 30
0.0
 11
8.212904
 21
81.024776
 31
0.0
  0
SPLINE
  5
109
100
AcDbEntity
  8
Layer_1
 62
5
100
AcDbSpline
 70
8
 71
3
 72
8
 73
4
 74
0
 40
0
 40
0
 40
0
 40
0
 40
1
 40
1
 40
1
 40
1
 10
15.815289
 20
13.555868
 30
0.0
 10
15.395870
 20
13.555868
 30
0.0
 10
14.993629
 20
13.722481
 30
0.0
 10
14.697056
 20
14.019055
 30
0.0
  0
SPLINE
  5
10a
100
AcDbEntity
  8
Layer_1
 62
5
100
AcDbSpline
 70
8
 71
3
 72
8
 73
4
 74
0
 40
0
 40
0
 40
0
 40
0
 40
1
 40
1
 40
1
 40
1
 10
14.697056
 20
14.019055
 30
0.0
 10
14.400482
 20
14.315629
 30
0.0
 10
14.233868
 20
14.717870
 30
0.0
 10
14.233869
 20
15.137289
 30
0.0
  0
SPLINE
  5
10b
100
AcDbEntity
  8
Layer_1
 62
5
100
AcDbSpline
 70
8
 71
3
 72
8
 73
4
 74
0
 40
0
 40
0
 40
0
 40
0
 40
1
 40
1
 40
1
 40
1
 10
14.233869
 20
15.137289
 30
0.0
 10
14.233868
 20
15.556708
 30
0.0
 10
14.400482
 20
15.958948
 30
0.0
 10
14.697056
 20
16.255522
 30
0.0
  0
SPLINE
  5
10c
100
AcDbEntity
  8
Layer_1
 62
5
100
AcDbSpline
 70
8
 71
3
 72
8
 73
4
 74
0
 40
0
 40
0
 40
0
 40
0
 40
1
 40
1
 40
1
 40
1
 10
14.697056
 20
16.255522
 30
0.0
 10
14.993629
 20
16.552096
 30
0.0
 10
15.395870
 20
16.718710
 30
0.0
 10
15.815289
 20
16.718710
 30
0.0
  0
SPLINE
  5
10d
100
AcDbEntity
  8
Layer_1
 62
5
100
AcDbSpline
 70
8
 71
3
 72
8
 73
4
 74
0
 40
0
 40
0
 40
0
 40
0
 40
1
 40
1
 40
1
 40
1
 10
15.815289
 20
16.718710
 30
0.0
 10
16.234708
 20
16.718710
 30
0.0
 10
16.636948
 20
16.552096
 30
0.0
 10
16.933522
 20
16.255522
 30
0.0
  0
SPLINE
  5
10e
100
AcDbEntity
  8
Layer_1
 62
5
100
AcDbSpline
 70
8
 71
3
 72
8
 73
4
 74
0
 40
0
 40
0
 40
0
 40
0
 40
1
 40
1
 40
1
 40
1
 10
16.933522
 20
16.255522
 30
0.0
 10
17.230096
 20
15.958948
 30
0.0
 10
17.396709
 20
15.556708
 30
0.0
 10
17.396709
 20
15.137289
 30
0.0
  0
SPLINE
  5
10f
100
AcDbEntity
  8
Layer_1
 62
5
100
AcDbSpline
 70
8
 71
3
 72
8
 73
4
 74
0
 40
0
 40
0
 40
0
 40
0
 40
1
 40
1
 40
1
 40
1
 10
17.396709
 20
15.137289
 30
0.0
 10
17.396709
 20
14.717870
 30
0.0
 10
17.230096
 20
14.315629
 30
0.0
 10
16.933522
 20
14.019055
 30
0.0
  0
SPLINE
  5
110
100
AcDbEntity
  8
Layer_1
 62
5
100
AcDbSpline
 70
8
 71
3
 72
8
 73
4
 74
0
 40
0
 40
0
 40
0
 40
0
 40
1
 40
1
 40
1
 40
1
 10
16.933522
 20
14.019055
 30
0.0
 10
16.636948
 20
13.722481
 30
0.0
 10
16.234708
 20
13.555868
 30
0.0
 10
15.815289
 20
13.555868
 30
0.0
  0
LINE
  5
111
100
AcDbEntity
  8
Layer_1
 62
5
100
AcDbLine
 10
15.815289
 20
13.555868
 30
0.0
 11
15.815289
 21
13.555868
 31
0.0
  0
SPLINE
  5
112
100
AcDbEntity
  8
Layer_1
 62
5
100
AcDbSpline
 70
8
 71
3
 72
8
 73
4
 74
0
 40
0
 40
0
 40
0
 40
0
 40
1
 40
1
 40
1
 40
1
 10
43.690797
 20
13.555868
 30
0.0
 10
43.271378
 20
13.555868
 30
0.0
 10
42.869137
 20
13.722481
 30
0.0
 10
42.572563
 20
14.019055
 30
0.0
  0
SPLINE
  5
113
100
AcDbEntity
  8
Layer_1
 62
5
100
AcDbSpline
 70
8
 71
3
 72
8
 73
4
 74
0
 40
0
 40
0
 40
0
 40
0
 40
1
 40
1
 40
1
 40
1
 10
42.572563
 20
14.019055
 30
0.0
 10
42.275989
 20
14.315629
 30
0.0
 10
42.109376
 20
14.717870
 30
0.0
 10
42.109376
 20
15.137289
 30
0.0
  0
SPLINE
  5
114
100
AcDbEntity
  8
Layer_1
 62
5
100
AcDbSpline
 70
8
 71
3
 72
8
 73
4
 74
0
 40
0
 40
0
 40
0
 40
0
 40
1
 40
1
 40
1
 40
1
 10
42.109376
 20
15.137289
 30
0.0
 10
42.109376
 20
15.556708
 30
0.0
 10
42.275989
 20
15.958948
 30
0.0
 10
42.572563
 20
16.255522
 30
0.0
  0
SPLINE
  5
115
100
AcDbEntity
  8
Layer_1
 62
5
100
AcDbSpline
 70
8
 71
3
 72
8
 73
4
 74
0
 40
0
 40
0
 40
0
 40
0
 40
1
 40
1
 40
1
 40
1
 10
42.572563
 20
16.255522
 30
0.0
 10
42.869137
 20
16.552096
 30
0.0
 10
43.271378
 20
16.718710
 30
0.0
 10
43.690797
 20
16.718710
 30
0.0
  0
SPLINE
  5
116
100
AcDbEntity
  8
Layer_1
 62
5
100
AcDbSpline
 70
8
 71
3
 72
8
 73
4
 74
0
 40
0
 40
0
 40
0
 40
0
 40
1
 40
1
 40
1
 40
1
 10
43.690797
 20
16.718710
 30
0.0
 10
44.564190
 20
16.718709
 30
0.0
 10
45.272215
 20
16.010682
 30
0.0
 10
45.272215
 20
15.137289
 30
0.0
  0
SPLINE
  5
117
100
AcDbEntity
  8
Layer_1
 62
5
100
AcDbSpline
 70
8
 71
3
 72
8
 73
4
 74
0
 40
0
 40
0
 40
0
 40
0
 40
1
 40
1
 40
1
 40
1
 10
45.272215
 20
15.137289
 30
0.0
 10
45.272215
 20
14.263895
 30
0.0
 10
44.564190
 20
13.555869
 30
0.0
 10
43.690797
 20
13.555868
 30
0.0
  0
LINE
  5
118
100
AcDbEntity
  8
Layer_1
 62
5
100
AcDbLine
 10
43.690797
 20
13.555868
 30
0.0
 11
43.690797
 21
13.555868
 31
0.0
  0
SPLINE
  5
119
100
AcDbEntity
  8
Layer_1
 62
5
100
AcDbSpline
 70
8
 71
3
 72
8
 73
4
 74
0
 40
0
 40
0
 40
0
 40
0
 40
1
 40
1
 40
1
 40
1
 10
58.895604
 20
64.238548
 30
0.0
 10
58.022210
 20
64.238548
 30
0.0
 10
57.314184
 20
64.946573
 30
0.0
 10
57.314183
 20
65.819966
 30
0.0
  0
SPLINE
  5
11a
100
AcDbEntity
  8
Layer_1
 62
5
100
AcDbSpline
 70
8
 71
3
 72
8
 73
4
 74
0
 40
0
 40
0
 40
0
 40
0
 40
1
 40
1
 40
1
 40
1
 10
57.314183
 20
65.819966
 30
0.0
 10
57.314183
 20
66.239385
 30
0.0
 10
57.480796
 20
66.641626
 30
0.0
 10
57.777370
 20
66.938200
 30
0.0
  0
SPLINE
  5
11b
100
AcDbEntity
  8
Layer_1
 62
5
100
AcDbSpline
 70
8
 71
3
 72
8
 73
4
 74
0
 40
0
 40
0
 40
0
 40
0
 40
1
 40
1
 40
1
 40
1
 10
57.777370
 20
66.938200
 30
0.0
 10
58.073944
 20
67.234774
 30
0.0
 10
58.476185
 20
67.401387
 30
0.0
 10
58.895604
 20
67.401387
 30
0.0
  0
SPLINE
  5
11c
100
AcDbEntity
  8
Layer_1
 62
5
100
AcDbSpline
 70
8
 71
3
 72
8
 73
4
 74
0
 40
0
 40
0
 40
0
 40
0
 40
1
 40
1
 40
1
 40
1
 10
58.895604
 20
67.401387
 30
0.0
 10
59.315023
 20
67.401387
 30
0.0
 10
59.717263
 20
67.234774
 30
0.0
 10
60.013837
 20
66.938200
 30
0.0
  0
SPLINE
  5
11d
100
AcDbEntity
  8
Layer_1
 62
5
100
AcDbSpline
 70
8
 71
3
 72
8
 73
4
 74
0
 40
0
 40
0
 40
0
 40
0
 40
1
 40
1
 40
1
 40
1
 10
60.013837
 20
66.938200
 30
0.0
 10
60.310411
 20
66.641626
 30
0.0
 10
60.477025
 20
66.239385
 30
0.0
 10
60.477025
 20
65.819966
 30
0.0
  0
SPLINE
  5
11e
100
AcDbEntity
  8
Layer_1
 62
5
100
AcDbSpline
 70
8
 71
3
 72
8
 73
4
 74
0
 40
0
 40
0
 40
0
 40
0
 40
1
 40
1
 40
1
 40
1
 10
60.477025
 20
65.819966
 30
0.0
 10
60.477023
 20
64.946573
 30
0.0
 10
59.768997
 20
64.238548
 30
0.0
 10
58.895604
 20
64.238548
 30
0.0
  0
LINE
  5
11f
100
AcDbEntity
  8
Layer_1
 62
5
100
AcDbLine
 10
58.895604
 20
64.238548
 30
0.0
 11
58.895604
 21
64.238548
 31
0.0
  0
SPLINE
  5
120
100
AcDbEntity
  8
Layer_1
 62
5
100
AcDbSpline
 70
8
 71
3
 72
8
 73
4
 74
0
 40
0
 40
0
 40
0
 40
0
 40
1
 40
1
 40
1
 40
1
 10
10.747019
 20
65.505619
 30
0.0
 10
10.327600
 20
65.505619
 30
0.0
 10
9.925360
 20
65.672232
 30
0.0
 10
9.628786
 20
65.968806
 30
0.0
  0
SPLINE
  5
121
100
AcDbEntity
  8
Layer_1
 62
5
100
AcDbSpline
 70
8
 71
3
 72
8
 73
4
 74
0
 40
0
 40
0
 40
0
 40
0
 40
1
 40
1
 40
1
 40
1
 10
9.628786
 20
65.968806
 30
0.0
 10
9.332212
 20
66.265380
 30
0.0
 10
9.165599
 20
66.667621
 30
0.0
 10
9.165599
 20
67.087040
 30
0.0
  0
SPLINE
  5
122
100
AcDbEntity
  8
Layer_1
 62
5
100
AcDbSpline
 70
8
 71
3
 72
8
 73
4
 74
0
 40
0
 40
0
 40
0
 40
0
 40
1
 40
1
 40
1
 40
1
 10
9.165599
 20
67.087040
 30
0.0
 10
9.165599
 20
67.506458
 30
0.0
 10
9.332212
 20
67.908699
 30
0.0
 10
9.628786
 20
68.205273
 30
0.0
  0
SPLINE
  5
123
100
AcDbEntity
  8
Layer_1
 62
5
100
AcDbSpline
 70
8
 71
3
 72
8
 73
4
 74
0
 40
0
 40
0
 40
0
 40
0
 40
1
 40
1
 40
1
 40
1
 10
9.628786
 20
68.205273
 30
0.0
 10
9.925360
 20
68.501847
 30
0.0
 10
10.327600
 20
68.668460
 30
0.0
 10
10.747019
 20
68.668460
 30
0.0
  0
SPLINE
  5
124
100
AcDbEntity
  8
Layer_1
 62
5
100
AcDbSpline
 70
8
 71
3
 72
8
 73
4
 74
0
 40
0
 40
0
 40
0
 40
0
 40
1
 40
1
 40
1
 40
1
 10
10.747019
 20
68.668460
 30
0.0
 10
11.166438
 20
68.668461
 30
0.0
 10
11.568679
 20
68.501847
 30
0.0
 10
11.865253
 20
68.205273
 30
0.0
  0
SPLINE
  5
125
100
AcDbEntity
  8
Layer_1
 62
5
100
AcDbSpline
 70
8
 71
3
 72
8
 73
4
 74
0
 40
0
 40
0
 40
0
 40
0
 40
1
 40
1
 40
1
 40
1
 10
11.865253
 20
68.205273
 30
0.0
 10
12.161826
 20
67.908699
 30
0.0
 10
12.328440
 20
67.506458
 30
0.0
 10
12.328440
 20
67.087040
 30
0.0
  0
SPLINE
  5
126
100
AcDbEntity
  8
Layer_1
 62
5
100
AcDbSpline
 70
8
 71
3
 72
8
 73
4
 74
0
 40
0
 40
0
 40
0
 40
0
 40
1
 40
1
 40
1
 40
1
 10
12.328440
 20
67.087040
 30
0.0
 10
12.328440
 20
66.667621
 30
0.0
 10
12.161826
 20
66.265380
 30
0.0
 10
11.865253
 20
65.968806
 30
0.0
  0
SPLINE
  5
127
100
AcDbEntity
  8
Layer_1
 62
5
100
AcDbSpline
 70
8
 71
3
 72
8
 73
4
 74
0
 40
0
 40
0
 40
0
 40
0
 40
1
 40
1
 40
1
 40
1
 10
11.865253
 20
65.968806
 30
0.0
 10
11.568679
 20
65.672232
 30
0.0
 10
11.166438
 20
65.505619
 30
0.0
 10
10.747019
 20
65.505619
 30
0.0
  0
LINE
  5
128
100
AcDbEntity
  8
Layer_1
 62
5
100
AcDbLine
 10
10.747019
 20
65.505619
 30
0.0
 11
10.747019
 21
65.505619
 31
0.0
  0
LINE
  5
129
100
AcDbEntity
  8
Layer_1
 62
3
100
AcDbLine
 10
78.103552
 20
87.813956
 30
0.0
 11
132.103551
 21
87.813956
 31
0.0
  0
LINE
  5
12a
100
AcDbEntity
  8
Layer_1
 62
3
100
AcDbLine
 10
132.103551
 20
87.813956
 30
0.0
 11
132.103551
 21
5.813948
 31
0.0
  0
LINE
  5
12b
100
AcDbEntity
  8
Layer_1
 62
3
100
AcDbLine
 10
132.103551
 20
5.813948
 30
0.0
 11
78.103552
 21
5.813948
 31
0.0
  0
LINE
  5
12c
100
AcDbEntity
  8
Layer_1
 62
3
100
AcDbLine
 10
78.103552
 20
5.813948
 30
0.0
 11
78.103552
 21
87.813956
 31
0.0
  0
LINE
  5
12d
100
AcDbEntity
  8
Layer_1
 62
6
100
AcDbLine
 10
4.808397
 20
93.486823
 30
0.0
 11
135.492385
 21
93.486823
 31
0.0
  0
SPLINE
  5
12e
100
AcDbEntity
  8
Layer_1
 62
6
100
AcDbSpline
 70
8
 71
3
 72
8
 73
4
 74
0
 40
0
 40
0
 40
0
 40
0
 40
1
 40
1
 40
1
 40
1
 10
135.492385
 20
93.486823
 30
0.0
 10
138.078060
 20
93.486823
 30
0.0
 10
140.159669
 20
91.405214
 30
0.0
 10
140.159669
 20
88.819536
 30
0.0
  0
LINE
  5
12f
100
AcDbEntity
  8
Layer_1
 62
6
100
AcDbLine
 10
140.159669
 20
88.819536
 30
0.0
 11
140.159669
 21
4.808390
 31
0.0
  0
SPLINE
  5
130
100
AcDbEntity
  8
Layer_1
 62
6
100
AcDbSpline
 70
8
 71
3
 72
8
 73
4
 74
0
 40
0
 40
0
 40
0
 40
0
 40
1
 40
1
 40
1
 40
1
 10
140.159669
 20
4.808390
 30
0.0
 10
140.159669
 20
2.222727
 30
0.0
 10
138.078060
 20
0.141112
 30
0.0
 10
135.492385
 20
0.141112
 30
0.0
  0
LINE
  5
131
100
AcDbEntity
  8
Layer_1
 62
6
100
AcDbLine
 10
135.492385
 20
0.141112
 30
0.0
 11
4.808397
 21
0.141112
 31
0.0
  0
SPLINE
  5
132
100
AcDbEntity
  8
Layer_1
 62
6
100
AcDbSpline
 70
8
 71
3
 72
8
 73
4
 74
0
 40
0
 40
0
 40
0
 40
0
 40
1
 40
1
 40
1
 40
1
 10
4.808397
 20
0.141112
 30
0.0
 10
2.222720
 20
0.141112
 30
0.0
 10
0.141111
 20
2.222727
 30
0.0
 10
0.141111
 20
4.808390
 30
0.0
  0
LINE
  5
133
100
AcDbEntity
  8
Layer_1
 62
6
100
AcDbLine
 10
0.141111
 20
4.808390
 30
0.0
 11
0.141111
 21
88.819536
 31
0.0
  0
SPLINE
  5
134
100
AcDbEntity
  8
Layer_1
 62
6
100
AcDbSpline
 70
8
 71
3
 72
8
 73
4
 74
0
 40
0
 40
0
 40
0
 40
0
 40
1
 40
1
 40
1
 40
1
 10
0.141111
 20
88.819536
 30
0.0
 10
0.141111
 20
91.405214
 30
0.0
 10
2.222720
 20
93.486823
 30
0.0
 10
4.808397
 20
93.486823
 30
0.0
  0
LINE
  5
135
100
AcDbEntity
  8
Layer_1
 62
6
100
AcDbLine
 10
4.808397
 20
93.486823
 30
0.0
 11
4.808397
 21
93.486823
 31
0.0
  0
SPLINE
  5
136
100
AcDbEntity
  8
Layer_1
 62
1
100
AcDbSpline
 70
8
 71
3
 72
8
 73
4
 74
0
 40
0
 40
0
 40
0
 40
0
 40
1
 40
1
 40
1
 40
1
 10
14.915461
 20
9.989824
 30
0.0
 10
13.706227
 20
8.261257
 30
0.0
 10
13.631497
 20
7.527461
 30
0.0
 10
13.110500
 20
6.637729
 30
0.0
  0
SPLINE
  5
137
100
AcDbEntity
  8
Layer_1
 62
1
100
AcDbSpline
 70
8
 71
3
 72
8
 73
4
 74
0
 40
0
 40
0
 40
0
 40
0
 40
1
 40
1
 40
1
 40
1
 10
13.110500
 20
6.637729
 30
0.0
 10
12.684771
 20
6.094020
 30
0.0
 10
12.041410
 20
6.367673
 30
0.0
 10
11.471103
 20
6.898119
 30
0.0
  0
SPLINE
  5
138
100
AcDbEntity
  8
Layer_1
 62
1
100
AcDbSpline
 70
8
 71
3
 72
8
 73
4
 74
0
 40
0
 40
0
 40
0
 40
0
 40
1
 40
1
 40
1
 40
1
 10
11.471103
 20
6.898119
 30
0.0
 10
11.802014
 20
7.312621
 30
0.0
 10
12.095312
 20
7.776731
 30
0.0
 10
12.314399
 20
8.197996
 30
0.0
  0
SPLINE
  5
139
100
AcDbEntity
  8
Layer_1
 62
1
100
AcDbSpline
 70
8
 71
3
 72
8
 73
4
 74
0
 40
0
 40
0
 40
0
 40
0
 40
1
 40
1
 40
1
 40
1
 10
12.314399
 20
8.197996
 30
0.0
 10
12.148463
 20
8.219565
 30
0.0
 10
11.851840
 20
8.417289
 30
0.0
 10
11.855148
 20
8.618772
 30
0.0
  0
SPLINE
  5
13a
100
AcDbEntity
  8
Layer_1
 62
1
100
AcDbSpline
 70
8
 71
3
 72
8
 73
4
 74
0
 40
0
 40
0
 40
0
 40
0
 40
1
 40
1
 40
1
 40
1
 10
11.855148
 20
8.618772
 30
0.0
 10
11.680221
 20
8.210951
 30
0.0
 10
11.382106
 20
7.750208
 30
0.0
 10
11.047275
 20
7.353011
 30
0.0
  0
SPLINE
  5
13b
100
AcDbEntity
  8
Layer_1
 62
1
100
AcDbSpline
 70
8
 71
3
 72
8
 73
4
 74
0
 40
0
 40
0
 40
0
 40
0
 40
1
 40
1
 40
1
 40
1
 10
11.047275
 20
7.353011
 30
0.0
 10
10.720590
 20
7.751944
 30
0.0
 10
10.453924
 20
8.196065
 30
0.0
 10
10.323111
 20
8.541004
 30
0.0
  0
SPLINE
  5
13c
100
AcDbEntity
  8
Layer_1
 62
1
100
AcDbSpline
 70
8
 71
3
 72
8
 73
4
 74
0
 40
0
 40
0
 40
0
 40
0
 40
1
 40
1
 40
1
 40
1
 10
10.323111
 20
8.541004
 30
0.0
 10
10.269936
 20
8.318414
 30
0.0
 10
9.973360
 20
8.021838
 30
0.0
 10
9.855358
 20
8.030852
 30
0.0
  0
SPLINE
  5
13d
100
AcDbEntity
  8
Layer_1
 62
1
100
AcDbSpline
 70
8
 71
3
 72
8
 73
4
 74
0
 40
0
 40
0
 40
0
 40
0
 40
1
 40
1
 40
1
 40
1
 10
9.855358
 20
8.030852
 30
0.0
 10
10.116131
 20
7.632463
 30
0.0
 10
10.384307
 20
7.261356
 30
0.0
 10
10.654129
 20
6.934197
 30
0.0
  0
SPLINE
  5
13e
100
AcDbEntity
  8
Layer_1
 62
1
100
AcDbSpline
 70
8
 71
3
 72
8
 73
4
 74
0
 40
0
 40
0
 40
0
 40
0
 40
1
 40
1
 40
1
 40
1
 10
10.654129
 20
6.934197
 30
0.0
 10
10.254440
 20
6.555750
 30
0.0
 10
9.849474
 20
6.317694
 30
0.0
 10
9.567229
 20
6.394616
 30
0.0
  0
SPLINE
  5
13f
100
AcDbEntity
  8
Layer_1
 62
1
100
AcDbSpline
 70
8
 71
3
 72
8
 73
4
 74
0
 40
0
 40
0
 40
0
 40
0
 40
1
 40
1
 40
1
 40
1
 10
9.567229
 20
6.394616
 30
0.0
 10
9.004583
 20
6.718958
 30
0.0
 10
8.391484
 20
8.120694
 30
0.0
 10
7.993392
 20
9.760389
 30
0.0
  0
SPLINE
  5
140
100
AcDbEntity
  8
Layer_1
 62
1
100
AcDbSpline
 70
8
 71
3
 72
8
 73
4
 74
0
 40
0
 40
0
 40
0
 40
0
 40
1
 40
1
 40
1
 40
1
 10
7.993392
 20
9.760389
 30
0.0
 10
7.303935
 20
8.318431
 30
0.0
 10
6.117506
 20
8.219588
 30
0.0
 10
5.461814
 20
9.877995
 30
0.0
  0
SPLINE
  5
141
100
AcDbEntity
  8
Layer_1
 62
1
100
AcDbSpline
 70
8
 71
3
 72
8
 73
4
 74
0
 40
0
 40
0
 40
0
 40
0
 40
1
 40
1
 40
1
 40
1
 10
5.461814
 20
9.877995
 30
0.0
 10
4.130907
 20
8.159641
 30
0.0
 10
3.148028
 20
6.001567
 30
0.0
 10
2.250814
 20
4.050837
 30
0.0
  0
SPLINE
  5
142
100
AcDbEntity
  8
Layer_1
 62
1
100
AcDbSpline
 70
8
 71
3
 72
8
 73
4
 74
0
 40
0
 40
0
 40
0
 40
0
 40
1
 40
1
 40
1
 40
1
 10
2.250814
 20
4.050837
 30
0.0
 10
2.378759
 20
4.143865
 30
0.0
 10
2.660573
 20
4.289216
 30
0.0
 10
2.917647
 20
4.050837
 30
0.0
  0
SPLINE
  5
143
100
AcDbEntity
  8
Layer_1
 62
1
100
AcDbSpline
 70
8
 71
3
 72
8
 73
4
 74
0
 40
0
 40
0
 40
0
 40
0
 40
1
 40
1
 40
1
 40
1
 10
2.917647
 20
4.050837
 30
0.0
 10
3.702015
 20
5.578273
 30
0.0
 10
4.230809
 20
7.380631
 30
0.0
 10
5.465746
 20
8.657131
 30
0.0
  0
SPLINE
  5
144
100
AcDbEntity
  8
Layer_1
 62
1
100
AcDbSpline
 70
8
 71
3
 72
8
 73
4
 74
0
 40
0
 40
0
 40
0
 40
0
 40
1
 40
1
 40
1
 40
1
 10
5.465746
 20
8.657131
 30
0.0
 10
6.139524
 20
7.865507
 30
0.0
 10
6.882536
 20
7.801079
 30
0.0
 10
7.801786
 20
8.466670
 30
0.0
  0
SPLINE
  5
145
100
AcDbEntity
  8
Layer_1
 62
1
100
AcDbSpline
 70
8
 71
3
 72
8
 73
4
 74
0
 40
0
 40
0
 40
0
 40
0
 40
1
 40
1
 40
1
 40
1
 10
7.801786
 20
8.466670
 30
0.0
 10
8.015138
 20
7.300645
 30
0.0
 10
8.589212
 20
6.044440
 30
0.0
 10
9.479869
 20
5.695956
 30
0.0
  0
SPLINE
  5
146
100
AcDbEntity
  8
Layer_1
 62
1
100
AcDbSpline
 70
8
 71
3
 72
8
 73
4
 74
0
 40
0
 40
0
 40
0
 40
0
 40
1
 40
1
 40
1
 40
1
 10
9.479869
 20
5.695956
 30
0.0
 10
9.989609
 20
5.569674
 30
0.0
 10
10.561819
 20
5.921241
 30
0.0
 10
11.082153
 20
6.455326
 30
0.0
  0
SPLINE
  5
147
100
AcDbEntity
  8
Layer_1
 62
1
100
AcDbSpline
 70
8
 71
3
 72
8
 73
4
 74
0
 40
0
 40
0
 40
0
 40
0
 40
1
 40
1
 40
1
 40
1
 10
11.082153
 20
6.455326
 30
0.0
 10
12.151355
 20
5.365730
 30
0.0
 10
13.199897
 20
5.121550
 30
0.0
 10
13.874884
 20
6.829071
 30
0.0
  0
SPLINE
  5
148
100
AcDbEntity
  8
Layer_1
 62
1
100
AcDbSpline
 70
8
 71
3
 72
8
 73
4
 74
0
 40
0
 40
0
 40
0
 40
0
 40
1
 40
1
 40
1
 40
1
 10
13.874884
 20
6.829071
 30
0.0
 10
14.527047
 20
6.288186
 30
0.0
 10
15.195335
 20
6.448647
 30
0.0
 10
15.644640
 20
6.643125
 30
0.0
  0
SPLINE
  5
149
100
AcDbEntity
  8
Layer_1
 62
1
100
AcDbSpline
 70
8
 71
3
 72
8
 73
4
 74
0
 40
0
 40
0
 40
0
 40
0
 40
1
 40
1
 40
1
 40
1
 10
15.644640
 20
6.643125
 30
0.0
 10
16.111942
 20
5.743747
 30
0.0
 10
16.300909
 20
5.055808
 30
0.0
 10
16.556548
 20
4.056286
 30
0.0
  0
SPLINE
  5
14a
100
AcDbEntity
  8
Layer_1
 62
1
100
AcDbSpline
 70
8
 71
3
 72
8
 73
4
 74
0
 40
0
 40
0
 40
0
 40
0
 40
1
 40
1
 40
1
 40
1
 10
16.556548
 20
4.056286
 30
0.0
 10
16.728128
 20
4.211398
 30
0.0
 10
16.865291
 20
4.276571
 30
0.0
 10
17.195969
 20
4.086969
 30
0.0
  0
SPLINE
  5
14b
100
AcDbEntity
  8
Layer_1
 62
1
100
AcDbSpline
 70
8
 71
3
 72
8
 73
4
 74
0
 40
0
 40
0
 40
0
 40
0
 40
1
 40
1
 40
1
 40
1
 10
17.195969
 20
4.086969
 30
0.0
 10
16.749330
 20
6.272078
 30
0.0
 10
16.006207
 20
7.875367
 30
0.0
 10
14.915461
 20
9.989824
 30
0.0
  0
LINE
  5
14c
100
AcDbEntity
  8
Layer_1
 62
1
100
AcDbLine
 10
14.915461
 20
9.989824
 30
0.0
 11
14.915461
 21
9.989824
 31
0.0
  0
SPLINE
  5
14d
100
AcDbEntity
  8
Layer_1
 62
1
100
AcDbSpline
 70
8
 71
3
 72
8
 73
4
 74
0
 40
0
 40
0
 40
0
 40
0
 40
1
 40
1
 40
1
 40
1
 10
14.837748
 20
8.728912
 30
0.0
 10
15.112181
 20
8.288314
 30
0.0
 10
15.356344
 20
7.762835
 30
0.0
 10
15.472917
 20
7.243307
 30
0.0
  0
SPLINE
  5
14e
100
AcDbEntity
  8
Layer_1
 62
1
100
AcDbSpline
 70
8
 71
3
 72
8
 73
4
 74
0
 40
0
 40
0
 40
0
 40
0
 40
1
 40
1
 40
1
 40
1
 10
15.472917
 20
7.243307
 30
0.0
 10
15.217397
 20
6.981522
 30
0.0
 10
14.637063
 20
6.892744
 30
0.0
 10
14.127971
 20
7.254970
 30
0.0
  0
SPLINE
  5
14f
100
AcDbEntity
  8
Layer_1
 62
1
100
AcDbSpline
 70
8
 71
3
 72
8
 73
4
 74
0
 40
0
 40
0
 40
0
 40
0
 40
1
 40
1
 40
1
 40
1
 10
14.127971
 20
7.254970
 30
0.0
 10
14.259536
 20
7.782976
 30
0.0
 10
14.450142
 20
8.303322
 30
0.0
 10
14.837748
 20
8.728912
 30
0.0
  0
LINE
  5
150
100
AcDbEntity
  8
Layer_1
 62
1
100
AcDbLine
 10
14.837748
 20
8.728912
 30
0.0
 11
14.837748
 21
8.728912
 31
0.0
  0
SPLINE
  5
151
100
AcDbEntity
  8
Layer_1
 62
1
100
AcDbSpline
 70
8
 71
3
 72
8
 73
4
 74
0
 40
0
 40
0
 40
0
 40
0
 40
1
 40
1
 40
1
 40
1
 10
3.495527
 20
4.591339
 30
0.0
 10
7.609933
 20
3.715638
 30
0.0
 10
12.132981
 20
3.546519
 30
0.0
 10
16.114709
 20
4.581374
 30
0.0
  0
SPLINE
  5
152
100
AcDbEntity
  8
Layer_1
 62
1
100
AcDbSpline
 70
8
 71
3
 72
8
 73
4
 74
0
 40
0
 40
0
 40
0
 40
0
 40
1
 40
1
 40
1
 40
1
 10
16.114709
 20
4.581374
 30
0.0
 10
16.105362
 20
4.376587
 30
0.0
 10
16.100115
 20
4.227293
 30
0.0
 10
16.243473
 20
4.047957
 30
0.0
  0
SPLINE
  5
153
100
AcDbEntity
  8
Layer_1
 62
1
100
AcDbSpline
 70
8
 71
3
 72
8
 73
4
 74
0
 40
0
 40
0
 40
0
 40
0
 40
1
 40
1
 40
1
 40
1
 10
16.243473
 20
4.047957
 30
0.0
 10
12.134446
 20
3.086800
 30
0.0
 10
7.434052
 20
3.053884
 30
0.0
 10
3.277861
 20
4.037207
 30
0.0
  0
SPLINE
  5
154
100
AcDbEntity
  8
Layer_1
 62
1
100
AcDbSpline
 70
8
 71
3
 72
8
 73
4
 74
0
 40
0
 40
0
 40
0
 40
0
 40
1
 40
1
 40
1
 40
1
 10
3.277861
 20
4.037207
 30
0.0
 10
3.364009
 20
4.178378
 30
0.0
 10
3.553545
 20
4.281974
 30
0.0
 10
3.495527
 20
4.591339
 30
0.0
  0
LINE
  5
155
100
AcDbEntity
  8
Layer_1
 62
1
100
AcDbLine
 10
3.495527
 20
4.591339
 30
0.0
 11
3.495527
 21
4.591339
 31
0.0
  0
SPLINE
  5
156
100
AcDbEntity
  8
Layer_1
 62
1
100
AcDbSpline
 70
8
 71
3
 72
8
 73
4
 74
0
 40
0
 40
0
 40
0
 40
0
 40
1
 40
1
 40
1
 40
1
 10
22.089626
 20
8.410489
 30
0.0
 10
22.089626
 20
8.643322
 30
0.0
 10
22.263193
 20
8.897322
 30
0.0
 10
22.504493
 20
8.897322
 30
0.0
  0
SPLINE
  5
157
100
AcDbEntity
  8
Layer_1
 62
1
100
AcDbSpline
 70
8
 71
3
 72
8
 73
4
 74
0
 40
0
 40
0
 40
0
 40
0
 40
1
 40
1
 40
1
 40
1
 10
22.504493
 20
8.897322
 30
0.0
 10
22.711926
 20
8.897322
 30
0.0
 10
22.838926
 20
8.727989
 30
0.0
 10
22.809293
 20
8.486689
 30
0.0
  0
SPLINE
  5
158
100
AcDbEntity
  8
Layer_1
 62
1
100
AcDbSpline
 70
8
 71
3
 72
8
 73
4
 74
0
 40
0
 40
0
 40
0
 40
0
 40
1
 40
1
 40
1
 40
1
 10
22.809293
 20
8.486689
 30
0.0
 10
22.783893
 20
8.275022
 30
0.0
 10
22.673826
 20
8.021022
 30
0.0
 10
22.411359
 20
8.021022
 30
0.0
  0
SPLINE
  5
159
100
AcDbEntity
  8
Layer_1
 62
1
100
AcDbSpline
 70
8
 71
3
 72
8
 73
4
 74
0
 40
0
 40
0
 40
0
 40
0
 40
1
 40
1
 40
1
 40
1
 10
22.411359
 20
8.021022
 30
0.0
 10
22.203926
 20
8.021022
 30
0.0
 10
22.089626
 20
8.203055
 30
0.0
 10
22.089626
 20
8.410489
 30
0.0
  0
LINE
  5
15a
100
AcDbEntity
  8
Layer_1
 62
1
100
AcDbLine
 10
22.089626
 20
8.410489
 30
0.0
 11
22.089626
 21
8.410489
 31
0.0
  0
LINE
  5
15b
100
AcDbEntity
  8
Layer_1
 62
1
100
AcDbLine
 10
23.410426
 20
9.324889
 30
0.0
 11
23.008259
 21
9.324889
 31
0.0
  0
LINE
  5
15c
100
AcDbEntity
  8
Layer_1
 62
1
100
AcDbLine
 10
23.008259
 20
9.324889
 30
0.0
 11
22.965926
 21
9.100522
 31
0.0
  0
SPLINE
  5
15d
100
AcDbEntity
  8
Layer_1
 62
1
100
AcDbSpline
 70
8
 71
3
 72
8
 73
4
 74
0
 40
0
 40
0
 40
0
 40
0
 40
1
 40
1
 40
1
 40
1
 10
22.965926
 20
9.100522
 30
0.0
 10
22.838926
 20
9.282555
 30
0.0
 10
22.661126
 20
9.362989
 30
0.0
 10
22.445226
 20
9.362989
 30
0.0
  0
SPLINE
  5
15e
100
AcDbEntity
  8
Layer_1
 62
1
100
AcDbSpline
 70
8
 71
3
 72
8
 73
4
 74
0
 40
0
 40
0
 40
0
 40
0
 40
1
 40
1
 40
1
 40
1
 10
22.445226
 20
9.362989
 30
0.0
 10
21.920293
 20
9.362989
 30
0.0
 10
21.581626
 20
8.863455
 30
0.0
 10
21.581626
 20
8.342755
 30
0.0
  0
SPLINE
  5
15f
100
AcDbEntity
  8
Layer_1
 62
1
100
AcDbSpline
 70
8
 71
3
 72
8
 73
4
 74
0
 40
0
 40
0
 40
0
 40
0
 40
1
 40
1
 40
1
 40
1
 10
21.581626
 20
8.342755
 30
0.0
 10
21.581626
 20
7.906722
 30
0.0
 10
21.920293
 20
7.555355
 30
0.0
 10
22.292826
 20
7.555355
 30
0.0
  0
SPLINE
  5
160
100
AcDbEntity
  8
Layer_1
 62
1
100
AcDbSpline
 70
8
 71
3
 72
8
 73
4
 74
0
 40
0
 40
0
 40
0
 40
0
 40
1
 40
1
 40
1
 40
1
 10
22.292826
 20
7.555355
 30
0.0
 10
22.546826
 20
7.555355
 30
0.0
 10
22.724626
 20
7.673889
 30
0.0
 10
22.834693
 20
7.800889
 30
0.0
  0
SPLINE
  5
161
100
AcDbEntity
  8
Layer_1
 62
1
100
AcDbSpline
 70
8
 71
3
 72
8
 73
4
 74
0
 40
0
 40
0
 40
0
 40
0
 40
1
 40
1
 40
1
 40
1
 10
22.834693
 20
7.800889
 30
0.0
 10
22.868559
 20
7.665422
 30
0.0
 10
22.978626
 20
7.559589
 30
0.0
 10
23.097159
 20
7.555355
 30
0.0
  0
SPLINE
  5
162
100
AcDbEntity
  8
Layer_1
 62
1
100
AcDbSpline
 70
8
 71
3
 72
8
 73
4
 74
0
 40
0
 40
0
 40
0
 40
0
 40
1
 40
1
 40
1
 40
1
 10
23.097159
 20
7.555355
 30
0.0
 10
23.300359
 20
7.546889
 30
0.0
 10
23.545893
 20
7.656955
 30
0.0
 10
23.749093
 20
7.927889
 30
0.0
  0
SPLINE
  5
163
100
AcDbEntity
  8
Layer_1
 62
1
100
AcDbSpline
 70
8
 71
3
 72
8
 73
4
 74
0
 40
0
 40
0
 40
0
 40
0
 40
1
 40
1
 40
1
 40
1
 10
23.749093
 20
7.927889
 30
0.0
 10
23.918426
 20
8.152255
 30
0.0
 10
24.011559
 20
8.478222
 30
0.0
 10
24.011559
 20
8.829589
 30
0.0
  0
SPLINE
  5
164
100
AcDbEntity
  8
Layer_1
 62
1
100
AcDbSpline
 70
8
 71
3
 72
8
 73
4
 74
0
 40
0
 40
0
 40
0
 40
0
 40
1
 40
1
 40
1
 40
1
 10
24.011559
 20
8.829589
 30
0.0
 10
24.011559
 20
9.231755
 30
0.0
 10
23.825293
 20
9.566189
 30
0.0
 10
23.537426
 20
9.820189
 30
0.0
  0
SPLINE
  5
165
100
AcDbEntity
  8
Layer_1
 62
1
100
AcDbSpline
 70
8
 71
3
 72
8
 73
4
 74
0
 40
0
 40
0
 40
0
 40
0
 40
1
 40
1
 40
1
 40
1
 10
23.537426
 20
9.820189
 30
0.0
 10
23.258026
 20
10.074189
 30
0.0
 10
22.915126
 20
10.188489
 30
0.0
 10
22.542593
 20
10.188489
 30
0.0
  0
SPLINE
  5
166
100
AcDbEntity
  8
Layer_1
 62
1
100
AcDbSpline
 70
8
 71
3
 72
8
 73
4
 74
0
 40
0
 40
0
 40
0
 40
0
 40
1
 40
1
 40
1
 40
1
 10
22.542593
 20
10.188489
 30
0.0
 10
21.640893
 20
10.188489
 30
0.0
 10
20.925459
 20
9.464589
 30
0.0
 10
20.925459
 20
8.507855
 30
0.0
  0
SPLINE
  5
167
100
AcDbEntity
  8
Layer_1
 62
1
100
AcDbSpline
 70
8
 71
3
 72
8
 73
4
 74
0
 40
0
 40
0
 40
0
 40
0
 40
1
 40
1
 40
1
 40
1
 10
20.925459
 20
8.507855
 30
0.0
 10
20.925459
 20
7.538422
 30
0.0
 10
21.657826
 20
6.827222
 30
0.0
 10
22.567993
 20
6.827222
 30
0.0
  0
SPLINE
  5
168
100
AcDbEntity
  8
Layer_1
 62
1
100
AcDbSpline
 70
8
 71
3
 72
8
 73
4
 74
0
 40
0
 40
0
 40
0
 40
0
 40
1
 40
1
 40
1
 40
1
 10
22.567993
 20
6.827222
 30
0.0
 10
23.020959
 20
6.827222
 30
0.0
 10
23.410426
 20
6.962689
 30
0.0
 10
23.706759
 20
7.115089
 30
0.0
  0
LINE
  5
169
100
AcDbEntity
  8
Layer_1
 62
1
100
AcDbLine
 10
23.706759
 20
7.115089
 30
0.0
 11
23.359626
 21
7.394489
 31
0.0
  0
SPLINE
  5
16a
100
AcDbEntity
  8
Layer_1
 62
1
100
AcDbSpline
 70
8
 71
3
 72
8
 73
4
 74
0
 40
0
 40
0
 40
0
 40
0
 40
1
 40
1
 40
1
 40
1
 10
23.359626
 20
7.394489
 30
0.0
 10
23.224159
 20
7.309822
 30
0.0
 10
22.953226
 20
7.225155
 30
0.0
 10
22.601859
 20
7.225155
 30
0.0
  0
SPLINE
  5
16b
100
AcDbEntity
  8
Layer_1
 62
1
100
AcDbSpline
 70
8
 71
3
 72
8
 73
4
 74
0
 40
0
 40
0
 40
0
 40
0
 40
1
 40
1
 40
1
 40
1
 10
22.601859
 20
7.225155
 30
0.0
 10
21.877959
 20
7.225155
 30
0.0
 10
21.323393
 20
7.724689
 30
0.0
 10
21.323393
 20
8.507855
 30
0.0
  0
SPLINE
  5
16c
100
AcDbEntity
  8
Layer_1
 62
1
100
AcDbSpline
 70
8
 71
3
 72
8
 73
4
 74
0
 40
0
 40
0
 40
0
 40
0
 40
1
 40
1
 40
1
 40
1
 10
21.323393
 20
8.507855
 30
0.0
 10
21.323393
 20
9.248689
 30
0.0
 10
21.818693
 20
9.790555
 30
0.0
 10
22.529893
 20
9.790555
 30
0.0
  0
SPLINE
  5
16d
100
AcDbEntity
  8
Layer_1
 62
1
100
AcDbSpline
 70
8
 71
3
 72
8
 73
4
 74
0
 40
0
 40
0
 40
0
 40
0
 40
1
 40
1
 40
1
 40
1
 10
22.529893
 20
9.790555
 30
0.0
 10
23.177593
 20
9.790555
 30
0.0
 10
23.702526
 20
9.396855
 30
0.0
 10
23.664426
 20
8.681422
 30
0.0
  0
SPLINE
  5
16e
100
AcDbEntity
  8
Layer_1
 62
1
100
AcDbSpline
 70
8
 71
3
 72
8
 73
4
 74
0
 40
0
 40
0
 40
0
 40
0
 40
1
 40
1
 40
1
 40
1
 10
23.664426
 20
8.681422
 30
0.0
 10
23.643259
 20
8.313122
 30
0.0
 10
23.401959
 20
7.961755
 30
0.0
 10
23.249559
 20
7.944822
 30
0.0
  0
SPLINE
  5
16f
100
AcDbEntity
  8
Layer_1
 62
1
100
AcDbSpline
 70
8
 71
3
 72
8
 73
4
 74
0
 40
0
 40
0
 40
0
 40
0
 40
1
 40
1
 40
1
 40
1
 10
23.249559
 20
7.944822
 30
0.0
 10
23.126793
 20
7.932122
 30
0.0
 10
23.177593
 20
8.118389
 30
0.0
 10
23.198759
 20
8.224222
 30
0.0
  0
LINE
  5
170
100
AcDbEntity
  8
Layer_1
 62
1
100
AcDbLine
 10
23.198759
 20
8.224222
 30
0.0
 11
23.410426
 21
9.324889
 31
0.0
  0
LINE
  5
171
100
AcDbEntity
  8
Layer_1
 62
1
100
AcDbLine
 10
23.410426
 20
9.324889
 30
0.0
 11
23.410426
 21
9.324889
 31
0.0
  0
LINE
  5
172
100
AcDbEntity
  8
Layer_1
 62
1
100
AcDbLine
 10
24.118385
 20
6.911889
 30
0.0
 11
24.943885
 21
6.911889
 31
0.0
  0
LINE
  5
173
100
AcDbEntity
  8
Layer_1
 62
1
100
AcDbLine
 10
24.943885
 20
6.911889
 30
0.0
 11
25.210585
 21
8.749155
 31
0.0
  0
LINE
  5
174
100
AcDbEntity
  8
Layer_1
 62
1
100
AcDbLine
 10
25.210585
 20
8.749155
 30
0.0
 11
25.219052
 21
8.749155
 31
0.0
  0
LINE
  5
175
100
AcDbEntity
  8
Layer_1
 62
1
100
AcDbLine
 10
25.219052
 20
8.749155
 30
0.0
 11
25.951419
 21
6.911889
 31
0.0
  0
LINE
  5
176
100
AcDbEntity
  8
Layer_1
 62
1
100
AcDbLine
 10
25.951419
 20
6.911889
 30
0.0
 11
26.281619
 21
6.911889
 31
0.0
  0
LINE
  5
177
100
AcDbEntity
  8
Layer_1
 62
1
100
AcDbLine
 10
26.281619
 20
6.911889
 30
0.0
 11
27.047852
 21
8.749155
 31
0.0
  0
LINE
  5
178
100
AcDbEntity
  8
Layer_1
 62
1
100
AcDbLine
 10
27.047852
 20
8.749155
 30
0.0
 11
27.056319
 21
8.749155
 31
0.0
  0
LINE
  5
179
100
AcDbEntity
  8
Layer_1
 62
1
100
AcDbLine
 10
27.056319
 20
8.749155
 30
0.0
 11
27.289152
 21
6.911889
 31
0.0
  0
LINE
  5
17a
100
AcDbEntity
  8
Layer_1
 62
1
100
AcDbLine
 10
27.289152
 20
6.911889
 30
0.0
 11
28.118885
 21
6.911889
 31
0.0
  0
LINE
  5
17b
100
AcDbEntity
  8
Layer_1
 62
1
100
AcDbLine
 10
28.118885
 20
6.911889
 30
0.0
 11
27.636285
 21
10.103822
 31
0.0
  0
LINE
  5
17c
100
AcDbEntity
  8
Layer_1
 62
1
100
AcDbLine
 10
27.636285
 20
10.103822
 30
0.0
 11
26.810785
 21
10.103822
 31
0.0
  0
LINE
  5
17d
100
AcDbEntity
  8
Layer_1
 62
1
100
AcDbLine
 10
26.810785
 20
10.103822
 30
0.0
 11
26.124985
 21
8.397789
 31
0.0
  0
LINE
  5
17e
100
AcDbEntity
  8
Layer_1
 62
1
100
AcDbLine
 10
26.124985
 20
8.397789
 30
0.0
 11
25.477285
 21
10.103822
 31
0.0
  0
LINE
  5
17f
100
AcDbEntity
  8
Layer_1
 62
1
100
AcDbLine
 10
25.477285
 20
10.103822
 30
0.0
 11
24.660252
 21
10.103822
 31
0.0
  0
LINE
  5
180
100
AcDbEntity
  8
Layer_1
 62
1
100
AcDbLine
 10
24.660252
 20
10.103822
 30
0.0
 11
24.118385
 21
6.911889
 31
0.0
  0
LINE
  5
181
100
AcDbEntity
  8
Layer_1
 62
1
100
AcDbLine
 10
24.118385
 20
6.911889
 30
0.0
 11
24.118385
 21
6.911889
 31
0.0
  0
LINE
  5
182
100
AcDbEntity
  8
Layer_1
 62
1
100
AcDbLine
 10
29.217105
 20
8.088755
 30
0.0
 11
28.133372
 21
6.911889
 31
0.0
  0
LINE
  5
183
100
AcDbEntity
  8
Layer_1
 62
1
100
AcDbLine
 10
28.133372
 20
6.911889
 30
0.0
 11
29.145138
 21
6.911889
 31
0.0
  0
LINE
  5
184
100
AcDbEntity
  8
Layer_1
 62
1
100
AcDbLine
 10
29.145138
 20
6.911889
 30
0.0
 11
29.703938
 21
7.555355
 31
0.0
  0
LINE
  5
185
100
AcDbEntity
  8
Layer_1
 62
1
100
AcDbLine
 10
29.703938
 20
7.555355
 30
0.0
 11
30.262738
 21
6.911889
 31
0.0
  0
LINE
  5
186
100
AcDbEntity
  8
Layer_1
 62
1
100
AcDbLine
 10
30.262738
 20
6.911889
 30
0.0
 11
31.274505
 21
6.911889
 31
0.0
  0
LINE
  5
187
100
AcDbEntity
  8
Layer_1
 62
1
100
AcDbLine
 10
31.274505
 20
6.911889
 30
0.0
 11
30.190772
 21
8.088755
 31
0.0
  0
LINE
  5
188
100
AcDbEntity
  8
Layer_1
 62
1
100
AcDbLine
 10
30.190772
 20
8.088755
 30
0.0
 11
31.088238
 21
9.083589
 31
0.0
  0
LINE
  5
189
100
AcDbEntity
  8
Layer_1
 62
1
100
AcDbLine
 10
31.088238
 20
9.083589
 30
0.0
 11
30.093405
 21
9.083589
 31
0.0
  0
LINE
  5
18a
100
AcDbEntity
  8
Layer_1
 62
1
100
AcDbLine
 10
30.093405
 20
9.083589
 30
0.0
 11
29.703938
 21
8.634855
 31
0.0
  0
LINE
  5
18b
100
AcDbEntity
  8
Layer_1
 62
1
100
AcDbLine
 10
29.703938
 20
8.634855
 30
0.0
 11
29.314472
 21
9.083589
 31
0.0
  0
LINE
  5
18c
100
AcDbEntity
  8
Layer_1
 62
1
100
AcDbLine
 10
29.314472
 20
9.083589
 30
0.0
 11
28.336572
 21
9.083589
 31
0.0
  0
LINE
  5
18d
100
AcDbEntity
  8
Layer_1
 62
1
100
AcDbLine
 10
28.336572
 20
9.083589
 30
0.0
 11
29.217105
 21
8.088755
 31
0.0
  0
LINE
  5
18e
100
AcDbEntity
  8
Layer_1
 62
1
100
AcDbLine
 10
29.217105
 20
8.088755
 30
0.0
 11
29.217105
 21
8.088755
 31
0.0
  0
LINE
  5
18f
100
AcDbEntity
  8
Layer_1
 62
1
100
AcDbLine
 10
33.441509
 20
7.466455
 30
0.0
 11
33.648942
 21
6.911889
 31
0.0
  0
LINE
  5
190
100
AcDbEntity
  8
Layer_1
 62
1
100
AcDbLine
 10
33.648942
 20
6.911889
 30
0.0
 11
34.533709
 21
6.911889
 31
0.0
  0
LINE
  5
191
100
AcDbEntity
  8
Layer_1
 62
1
100
AcDbLine
 10
34.533709
 20
6.911889
 30
0.0
 11
33.331442
 21
10.103822
 31
0.0
  0
LINE
  5
192
100
AcDbEntity
  8
Layer_1
 62
1
100
AcDbLine
 10
33.331442
 20
10.103822
 30
0.0
 11
32.425509
 21
10.103822
 31
0.0
  0
LINE
  5
193
100
AcDbEntity
  8
Layer_1
 62
1
100
AcDbLine
 10
32.425509
 20
10.103822
 30
0.0
 11
31.197842
 21
6.911889
 31
0.0
  0
LINE
  5
194
100
AcDbEntity
  8
Layer_1
 62
1
100
AcDbLine
 10
31.197842
 20
6.911889
 30
0.0
 11
32.078376
 21
6.911889
 31
0.0
  0
LINE
  5
195
100
AcDbEntity
  8
Layer_1
 62
1
100
AcDbLine
 10
32.078376
 20
6.911889
 30
0.0
 11
32.298509
 21
7.466455
 31
0.0
  0
LINE
  5
196
100
AcDbEntity
  8
Layer_1
 62
1
100
AcDbLine
 10
32.298509
 20
7.466455
 30
0.0
 11
33.441509
 21
7.466455
 31
0.0
  0
LINE
  5
197
100
AcDbEntity
  8
Layer_1
 62
1
100
AcDbLine
 10
33.441509
 20
7.466455
 30
0.0
 11
33.441509
 21
7.466455
 31
0.0
  0
LINE
  5
198
100
AcDbEntity
  8
Layer_1
 62
1
100
AcDbLine
 10
33.217142
 20
8.101455
 30
0.0
 11
32.527109
 21
8.101455
 31
0.0
  0
LINE
  5
199
100
AcDbEntity
  8
Layer_1
 62
1
100
AcDbLine
 10
32.527109
 20
8.101455
 30
0.0
 11
32.870009
 21
9.117455
 31
0.0
  0
LINE
  5
19a
100
AcDbEntity
  8
Layer_1
 62
1
100
AcDbLine
 10
32.870009
 20
9.117455
 30
0.0
 11
32.878476
 21
9.117455
 31
0.0
  0
LINE
  5
19b
100
AcDbEntity
  8
Layer_1
 62
1
100
AcDbLine
 10
32.878476
 20
9.117455
 30
0.0
 11
33.217142
 21
8.101455
 31
0.0
  0
LINE
  5
19c
100
AcDbEntity
  8
Layer_1
 62
1
100
AcDbLine
 10
33.217142
 20
8.101455
 30
0.0
 11
33.217142
 21
8.101455
 31
0.0
  0
LINE
  5
19d
100
AcDbEntity
  8
Layer_1
 62
1
100
AcDbLine
 10
35.546534
 20
9.083589
 30
0.0
 11
34.776067
 21
9.083589
 31
0.0
  0
LINE
  5
19e
100
AcDbEntity
  8
Layer_1
 62
1
100
AcDbLine
 10
34.776067
 20
9.083589
 30
0.0
 11
34.776067
 21
6.911889
 31
0.0
  0
LINE
  5
19f
100
AcDbEntity
  8
Layer_1
 62
1
100
AcDbLine
 10
34.776067
 20
6.911889
 30
0.0
 11
35.546534
 21
6.911889
 31
0.0
  0
LINE
  5
1a0
100
AcDbEntity
  8
Layer_1
 62
1
100
AcDbLine
 10
35.546534
 20
6.911889
 30
0.0
 11
35.546534
 21
9.083589
 31
0.0
  0
LINE
  5
1a1
100
AcDbEntity
  8
Layer_1
 62
1
100
AcDbLine
 10
35.546534
 20
9.083589
 30
0.0
 11
35.546534
 21
9.083589
 31
0.0
  0
SPLINE
  5
1a2
100
AcDbEntity
  8
Layer_1
 62
1
100
AcDbSpline
 70
8
 71
3
 72
8
 73
4
 74
0
 40
0
 40
0
 40
0
 40
0
 40
1
 40
1
 40
1
 40
1
 10
35.161301
 20
10.349355
 30
0.0
 10
34.924234
 20
10.349355
 30
0.0
 10
34.729501
 20
10.154622
 30
0.0
 10
34.729501
 20
9.917555
 30
0.0
  0
SPLINE
  5
1a3
100
AcDbEntity
  8
Layer_1
 62
1
100
AcDbSpline
 70
8
 71
3
 72
8
 73
4
 74
0
 40
0
 40
0
 40
0
 40
0
 40
1
 40
1
 40
1
 40
1
 10
34.729501
 20
9.917555
 30
0.0
 10
34.729501
 20
9.680489
 30
0.0
 10
34.924234
 20
9.485755
 30
0.0
 10
35.161301
 20
9.485755
 30
0.0
  0
SPLINE
  5
1a4
100
AcDbEntity
  8
Layer_1
 62
1
100
AcDbSpline
 70
8
 71
3
 72
8
 73
4
 74
0
 40
0
 40
0
 40
0
 40
0
 40
1
 40
1
 40
1
 40
1
 10
35.161301
 20
9.485755
 30
0.0
 10
35.398367
 20
9.485755
 30
0.0
 10
35.593101
 20
9.680489
 30
0.0
 10
35.593101
 20
9.917555
 30
0.0
  0
SPLINE
  5
1a5
100
AcDbEntity
  8
Layer_1
 62
1
100
AcDbSpline
 70
8
 71
3
 72
8
 73
4
 74
0
 40
0
 40
0
 40
0
 40
0
 40
1
 40
1
 40
1
 40
1
 10
35.593101
 20
9.917555
 30
0.0
 10
35.593101
 20
10.154622
 30
0.0
 10
35.398367
 20
10.349355
 30
0.0
 10
35.161301
 20
10.349355
 30
0.0
  0
LINE
  5
1a6
100
AcDbEntity
  8
Layer_1
 62
1
100
AcDbLine
 10
35.161301
 20
10.349355
 30
0.0
 11
35.161301
 21
10.349355
 31
0.0
  0
LINE
  5
1a7
100
AcDbEntity
  8
Layer_1
 62
1
100
AcDbLine
 10
36.900075
 20
8.448589
 30
0.0
 11
37.336108
 21
8.448589
 31
0.0
  0
LINE
  5
1a8
100
AcDbEntity
  8
Layer_1
 62
1
100
AcDbLine
 10
37.336108
 20
8.448589
 30
0.0
 11
37.336108
 21
9.083589
 31
0.0
  0
LINE
  5
1a9
100
AcDbEntity
  8
Layer_1
 62
1
100
AcDbLine
 10
37.336108
 20
9.083589
 30
0.0
 11
36.900075
 21
9.083589
 31
0.0
  0
LINE
  5
1aa
100
AcDbEntity
  8
Layer_1
 62
1
100
AcDbLine
 10
36.900075
 20
9.083589
 30
0.0
 11
36.900075
 21
9.735522
 31
0.0
  0
LINE
  5
1ab
100
AcDbEntity
  8
Layer_1
 62
1
100
AcDbLine
 10
36.900075
 20
9.735522
 30
0.0
 11
36.129608
 21
9.735522
 31
0.0
  0
LINE
  5
1ac
100
AcDbEntity
  8
Layer_1
 62
1
100
AcDbLine
 10
36.129608
 20
9.735522
 30
0.0
 11
36.129608
 21
9.083589
 31
0.0
  0
LINE
  5
1ad
100
AcDbEntity
  8
Layer_1
 62
1
100
AcDbLine
 10
36.129608
 20
9.083589
 30
0.0
 11
35.879841
 21
9.083589
 31
0.0
  0
LINE
  5
1ae
100
AcDbEntity
  8
Layer_1
 62
1
100
AcDbLine
 10
35.879841
 20
9.083589
 30
0.0
 11
35.879841
 21
8.448589
 31
0.0
  0
LINE
  5
1af
100
AcDbEntity
  8
Layer_1
 62
1
100
AcDbLine
 10
35.879841
 20
8.448589
 30
0.0
 11
36.129608
 21
8.448589
 31
0.0
  0
LINE
  5
1b0
100
AcDbEntity
  8
Layer_1
 62
1
100
AcDbLine
 10
36.129608
 20
8.448589
 30
0.0
 11
36.129608
 21
6.911889
 31
0.0
  0
LINE
  5
1b1
100
AcDbEntity
  8
Layer_1
 62
1
100
AcDbLine
 10
36.129608
 20
6.911889
 30
0.0
 11
36.900075
 21
6.911889
 31
0.0
  0
LINE
  5
1b2
100
AcDbEntity
  8
Layer_1
 62
1
100
AcDbLine
 10
36.900075
 20
6.911889
 30
0.0
 11
36.900075
 21
8.448589
 31
0.0
  0
LINE
  5
1b3
100
AcDbEntity
  8
Layer_1
 62
1
100
AcDbLine
 10
36.900075
 20
8.448589
 30
0.0
 11
36.900075
 21
8.448589
 31
0.0
  0
LINE
  5
1b4
100
AcDbEntity
  8
Layer_1
 62
1
100
AcDbLine
 10
37.578997
 20
10.425555
 30
0.0
 11
37.578997
 21
6.911889
 31
0.0
  0
LINE
  5
1b5
100
AcDbEntity
  8
Layer_1
 62
1
100
AcDbLine
 10
37.578997
 20
6.911889
 30
0.0
 11
38.349463
 21
6.911889
 31
0.0
  0
LINE
  5
1b6
100
AcDbEntity
  8
Layer_1
 62
1
100
AcDbLine
 10
38.349463
 20
6.911889
 30
0.0
 11
38.349463
 21
8.025255
 31
0.0
  0
SPLINE
  5
1b7
100
AcDbEntity
  8
Layer_1
 62
1
100
AcDbSpline
 70
8
 71
3
 72
8
 73
4
 74
0
 40
0
 40
0
 40
0
 40
0
 40
1
 40
1
 40
1
 40
1
 10
38.349463
 20
8.025255
 30
0.0
 10
38.349463
 20
8.279255
 30
0.0
 10
38.446830
 20
8.541722
 30
0.0
 10
38.751630
 20
8.541722
 30
0.0
  0
SPLINE
  5
1b8
100
AcDbEntity
  8
Layer_1
 62
1
100
AcDbSpline
 70
8
 71
3
 72
8
 73
4
 74
0
 40
0
 40
0
 40
0
 40
0
 40
1
 40
1
 40
1
 40
1
 10
38.751630
 20
8.541722
 30
0.0
 10
39.060663
 20
8.541722
 30
0.0
 10
39.098763
 20
8.279255
 30
0.0
 10
39.098763
 20
8.025255
 30
0.0
  0
LINE
  5
1b9
100
AcDbEntity
  8
Layer_1
 62
1
100
AcDbLine
 10
39.098763
 20
8.025255
 30
0.0
 11
39.098763
 21
6.911889
 31
0.0
  0
LINE
  5
1ba
100
AcDbEntity
  8
Layer_1
 62
1
100
AcDbLine
 10
39.098763
 20
6.911889
 30
0.0
 11
39.869230
 21
6.911889
 31
0.0
  0
LINE
  5
1bb
100
AcDbEntity
  8
Layer_1
 62
1
100
AcDbLine
 10
39.869230
 20
6.911889
 30
0.0
 11
39.869230
 21
8.241155
 31
0.0
  0
SPLINE
  5
1bc
100
AcDbEntity
  8
Layer_1
 62
1
100
AcDbSpline
 70
8
 71
3
 72
8
 73
4
 74
0
 40
0
 40
0
 40
0
 40
0
 40
1
 40
1
 40
1
 40
1
 10
39.869230
 20
8.241155
 30
0.0
 10
39.869230
 20
8.791489
 30
0.0
 10
39.602530
 20
9.155555
 30
0.0
 10
39.052197
 20
9.155555
 30
0.0
  0
SPLINE
  5
1bd
100
AcDbEntity
  8
Layer_1
 62
1
100
AcDbSpline
 70
8
 71
3
 72
8
 73
4
 74
0
 40
0
 40
0
 40
0
 40
0
 40
1
 40
1
 40
1
 40
1
 10
39.052197
 20
9.155555
 30
0.0
 10
38.751630
 20
9.155555
 30
0.0
 10
38.535730
 20
9.045489
 30
0.0
 10
38.357930
 20
8.808422
 30
0.0
  0
LINE
  5
1be
100
AcDbEntity
  8
Layer_1
 62
1
100
AcDbLine
 10
38.357930
 20
8.808422
 30
0.0
 11
38.349463
 21
8.808422
 31
0.0
  0
LINE
  5
1bf
100
AcDbEntity
  8
Layer_1
 62
1
100
AcDbLine
 10
38.349463
 20
8.808422
 30
0.0
 11
38.349463
 21
10.425555
 31
0.0
  0
LINE
  5
1c0
100
AcDbEntity
  8
Layer_1
 62
1
100
AcDbLine
 10
38.349463
 20
10.425555
 30
0.0
 11
37.578997
 21
10.425555
 31
0.0
  0
LINE
  5
1c1
100
AcDbEntity
  8
Layer_1
 62
1
100
AcDbLine
 10
37.578997
 20
10.425555
 30
0.0
 11
37.578997
 21
10.425555
 31
0.0
  0
LINE
  5
1c2
100
AcDbEntity
  8
Layer_1
 62
1
100
AcDbLine
 10
41.144124
 20
9.083589
 30
0.0
 11
40.373657
 21
9.083589
 31
0.0
  0
LINE
  5
1c3
100
AcDbEntity
  8
Layer_1
 62
1
100
AcDbLine
 10
40.373657
 20
9.083589
 30
0.0
 11
40.373657
 21
6.911889
 31
0.0
  0
LINE
  5
1c4
100
AcDbEntity
  8
Layer_1
 62
1
100
AcDbLine
 10
40.373657
 20
6.911889
 30
0.0
 11
41.144124
 21
6.911889
 31
0.0
  0
LINE
  5
1c5
100
AcDbEntity
  8
Layer_1
 62
1
100
AcDbLine
 10
41.144124
 20
6.911889
 30
0.0
 11
41.144124
 21
8.037955
 31
0.0
  0
SPLINE
  5
1c6
100
AcDbEntity
  8
Layer_1
 62
1
100
AcDbSpline
 70
8
 71
3
 72
8
 73
4
 74
0
 40
0
 40
0
 40
0
 40
0
 40
1
 40
1
 40
1
 40
1
 10
41.144124
 20
8.037955
 30
0.0
 10
41.144124
 20
8.308889
 30
0.0
 10
41.233024
 20
8.541722
 30
0.0
 10
41.546291
 20
8.541722
 30
0.0
  0
SPLINE
  5
1c7
100
AcDbEntity
  8
Layer_1
 62
1
100
AcDbSpline
 70
8
 71
3
 72
8
 73
4
 74
0
 40
0
 40
0
 40
0
 40
0
 40
1
 40
1
 40
1
 40
1
 10
41.546291
 20
8.541722
 30
0.0
 10
41.927291
 20
8.541722
 30
0.0
 10
41.893424
 20
8.177655
 30
0.0
 10
41.893424
 20
7.970222
 30
0.0
  0
LINE
  5
1c8
100
AcDbEntity
  8
Layer_1
 62
1
100
AcDbLine
 10
41.893424
 20
7.970222
 30
0.0
 11
41.893424
 21
6.911889
 31
0.0
  0
LINE
  5
1c9
100
AcDbEntity
  8
Layer_1
 62
1
100
AcDbLine
 10
41.893424
 20
6.911889
 30
0.0
 11
42.663891
 21
6.911889
 31
0.0
  0
LINE
  5
1ca
100
AcDbEntity
  8
Layer_1
 62
1
100
AcDbLine
 10
42.663891
 20
6.911889
 30
0.0
 11
42.663891
 21
8.253855
 31
0.0
  0
SPLINE
  5
1cb
100
AcDbEntity
  8
Layer_1
 62
1
100
AcDbSpline
 70
8
 71
3
 72
8
 73
4
 74
0
 40
0
 40
0
 40
0
 40
0
 40
1
 40
1
 40
1
 40
1
 10
42.663891
 20
8.253855
 30
0.0
 10
42.663891
 20
8.787255
 30
0.0
 10
42.431057
 20
9.155555
 30
0.0
 10
41.846857
 20
9.155555
 30
0.0
  0
SPLINE
  5
1cc
100
AcDbEntity
  8
Layer_1
 62
1
100
AcDbSpline
 70
8
 71
3
 72
8
 73
4
 74
0
 40
0
 40
0
 40
0
 40
0
 40
1
 40
1
 40
1
 40
1
 10
41.846857
 20
9.155555
 30
0.0
 10
41.546291
 20
9.155555
 30
0.0
 10
41.330391
 20
9.066655
 30
0.0
 10
41.152591
 20
8.804189
 30
0.0
  0
LINE
  5
1cd
100
AcDbEntity
  8
Layer_1
 62
1
100
AcDbLine
 10
41.152591
 20
8.804189
 30
0.0
 11
41.144124
 21
8.804189
 31
0.0
  0
LINE
  5
1ce
100
AcDbEntity
  8
Layer_1
 62
1
100
AcDbLine
 10
41.144124
 20
8.804189
 30
0.0
 11
41.144124
 21
9.083589
 31
0.0
  0
LINE
  5
1cf
100
AcDbEntity
  8
Layer_1
 62
1
100
AcDbLine
 10
41.144124
 20
9.083589
 30
0.0
 11
41.144124
 21
9.083589
 31
0.0
  0
SPLINE
  5
1d0
100
AcDbEntity
  8
Layer_1
 62
1
100
AcDbSpline
 70
8
 71
3
 72
8
 73
4
 74
0
 40
0
 40
0
 40
0
 40
0
 40
1
 40
1
 40
1
 40
1
 10
43.790618
 20
8.313122
 30
0.0
 10
43.837184
 20
8.537489
 30
0.0
 10
44.023451
 20
8.656022
 30
0.0
 10
44.247818
 20
8.656022
 30
0.0
  0
SPLINE
  5
1d1
100
AcDbEntity
  8
Layer_1
 62
1
100
AcDbSpline
 70
8
 71
3
 72
8
 73
4
 74
0
 40
0
 40
0
 40
0
 40
0
 40
1
 40
1
 40
1
 40
1
 10
44.247818
 20
8.656022
 30
0.0
 10
44.455251
 20
8.656022
 30
0.0
 10
44.645751
 20
8.520555
 30
0.0
 10
44.683851
 20
8.313122
 30
0.0
  0
LINE
  5
1d2
100
AcDbEntity
  8
Layer_1
 62
1
100
AcDbLine
 10
44.683851
 20
8.313122
 30
0.0
 11
43.790618
 21
8.313122
 31
0.0
  0
LINE
  5
1d3
100
AcDbEntity
  8
Layer_1
 62
1
100
AcDbLine
 10
43.790618
 20
8.313122
 30
0.0
 11
43.790618
 21
8.313122
 31
0.0
  0
SPLINE
  5
1d4
100
AcDbEntity
  8
Layer_1
 62
1
100
AcDbSpline
 70
8
 71
3
 72
8
 73
4
 74
0
 40
0
 40
0
 40
0
 40
0
 40
1
 40
1
 40
1
 40
1
 10
45.399284
 20
7.949055
 30
0.0
 10
45.399284
 20
8.689889
 30
0.0
 10
44.963251
 20
9.155555
 30
0.0
 10
44.209718
 20
9.155555
 30
0.0
  0
SPLINE
  5
1d5
100
AcDbEntity
  8
Layer_1
 62
1
100
AcDbSpline
 70
8
 71
3
 72
8
 73
4
 74
0
 40
0
 40
0
 40
0
 40
0
 40
1
 40
1
 40
1
 40
1
 10
44.209718
 20
9.155555
 30
0.0
 10
43.502751
 20
9.155555
 30
0.0
 10
43.007451
 20
8.719522
 30
0.0
 10
43.007451
 20
7.995622
 30
0.0
  0
SPLINE
  5
1d6
100
AcDbEntity
  8
Layer_1
 62
1
100
AcDbSpline
 70
8
 71
3
 72
8
 73
4
 74
0
 40
0
 40
0
 40
0
 40
0
 40
1
 40
1
 40
1
 40
1
 10
43.007451
 20
7.995622
 30
0.0
 10
43.007451
 20
7.246322
 30
0.0
 10
43.545084
 20
6.839922
 30
0.0
 10
44.264751
 20
6.839922
 30
0.0
  0
SPLINE
  5
1d7
100
AcDbEntity
  8
Layer_1
 62
1
100
AcDbSpline
 70
8
 71
3
 72
8
 73
4
 74
0
 40
0
 40
0
 40
0
 40
0
 40
1
 40
1
 40
1
 40
1
 10
44.264751
 20
6.839922
 30
0.0
 10
44.514518
 20
6.839922
 30
0.0
 10
44.760051
 20
6.899189
 30
0.0
 10
44.959018
 20
7.021955
 30
0.0
  0
SPLINE
  5
1d8
100
AcDbEntity
  8
Layer_1
 62
1
100
AcDbSpline
 70
8
 71
3
 72
8
 73
4
 74
0
 40
0
 40
0
 40
0
 40
0
 40
1
 40
1
 40
1
 40
1
 10
44.959018
 20
7.021955
 30
0.0
 10
45.157984
 20
7.144722
 30
0.0
 10
45.310384
 20
7.330989
 30
0.0
 10
45.369651
 20
7.584989
 30
0.0
  0
LINE
  5
1d9
100
AcDbEntity
  8
Layer_1
 62
1
100
AcDbLine
 10
45.369651
 20
7.584989
 30
0.0
 11
44.628818
 21
7.584989
 31
0.0
  0
SPLINE
  5
1da
100
AcDbEntity
  8
Layer_1
 62
1
100
AcDbSpline
 70
8
 71
3
 72
8
 73
4
 74
0
 40
0
 40
0
 40
0
 40
0
 40
1
 40
1
 40
1
 40
1
 10
44.628818
 20
7.584989
 30
0.0
 10
44.544151
 20
7.441055
 30
0.0
 10
44.425618
 20
7.386022
 30
0.0
 10
44.260518
 20
7.386022
 30
0.0
  0
SPLINE
  5
1db
100
AcDbEntity
  8
Layer_1
 62
1
100
AcDbSpline
 70
8
 71
3
 72
8
 73
4
 74
0
 40
0
 40
0
 40
0
 40
0
 40
1
 40
1
 40
1
 40
1
 10
44.260518
 20
7.386022
 30
0.0
 10
43.943018
 20
7.386022
 30
0.0
 10
43.777918
 20
7.555355
 30
0.0
 10
43.777918
 20
7.868622
 30
0.0
  0
LINE
  5
1dc
100
AcDbEntity
  8
Layer_1
 62
1
100
AcDbLine
 10
43.777918
 20
7.868622
 30
0.0
 11
45.399284
 21
7.868622
 31
0.0
  0
LINE
  5
1dd
100
AcDbEntity
  8
Layer_1
 62
1
100
AcDbLine
 10
45.399284
 20
7.868622
 30
0.0
 11
45.399284
 21
7.949055
 31
0.0
  0
LINE
  5
1de
100
AcDbEntity
  8
Layer_1
 62
1
100
AcDbLine
 10
45.399284
 20
7.949055
 30
0.0
 11
45.399284
 21
7.949055
 31
0.0
  0
LINE
  5
1df
100
AcDbEntity
  8
Layer_1
 62
1
100
AcDbLine
 10
21.695926
 20
4.356366
 30
0.0
 11
20.840793
 21
4.356366
 31
0.0
  0
LINE
  5
1e0
100
AcDbEntity
  8
Layer_1
 62
1
100
AcDbLine
 10
20.840793
 20
4.356366
 30
0.0
 11
21.975326
 21
2.184666
 31
0.0
  0
LINE
  5
1e1
100
AcDbEntity
  8
Layer_1
 62
1
100
AcDbLine
 10
21.975326
 20
2.184666
 30
0.0
 11
22.474859
 21
2.184666
 31
0.0
  0
LINE
  5
1e2
100
AcDbEntity
  8
Layer_1
 62
1
100
AcDbLine
 10
22.474859
 20
2.184666
 30
0.0
 11
23.012493
 21
3.374233
 31
0.0
  0
LINE
  5
1e3
100
AcDbEntity
  8
Layer_1
 62
1
100
AcDbLine
 10
23.012493
 20
3.374233
 30
0.0
 11
23.550126
 21
2.184666
 31
0.0
  0
LINE
  5
1e4
100
AcDbEntity
  8
Layer_1
 62
1
100
AcDbLine
 10
23.550126
 20
2.184666
 30
0.0
 11
24.049659
 21
2.184666
 31
0.0
  0
LINE
  5
1e5
100
AcDbEntity
  8
Layer_1
 62
1
100
AcDbLine
 10
24.049659
 20
2.184666
 30
0.0
 11
25.184193
 21
4.356366
 31
0.0
  0
LINE
  5
1e6
100
AcDbEntity
  8
Layer_1
 62
1
100
AcDbLine
 10
25.184193
 20
4.356366
 30
0.0
 11
24.333293
 21
4.356366
 31
0.0
  0
LINE
  5
1e7
100
AcDbEntity
  8
Layer_1
 62
1
100
AcDbLine
 10
24.333293
 20
4.356366
 30
0.0
 11
23.787193
 21
3.179500
 31
0.0
  0
LINE
  5
1e8
100
AcDbEntity
  8
Layer_1
 62
1
100
AcDbLine
 10
23.787193
 20
3.179500
 30
0.0
 11
23.241093
 21
4.356366
 31
0.0
  0
LINE
  5
1e9
100
AcDbEntity
  8
Layer_1
 62
1
100
AcDbLine
 10
23.241093
 20
4.356366
 30
0.0
 11
22.783893
 21
4.356366
 31
0.0
  0
LINE
  5
1ea
100
AcDbEntity
  8
Layer_1
 62
1
100
AcDbLine
 10
22.783893
 20
4.356366
 30
0.0
 11
22.237793
 21
3.179500
 31
0.0
  0
LINE
  5
1eb
100
AcDbEntity
  8
Layer_1
 62
1
100
AcDbLine
 10
22.237793
 20
3.179500
 30
0.0
 11
21.695926
 21
4.356366
 31
0.0
  0
LINE
  5
1ec
100
AcDbEntity
  8
Layer_1
 62
1
100
AcDbLine
 10
21.695926
 20
4.356366
 30
0.0
 11
21.695926
 21
4.356366
 31
0.0
  0
LINE
  5
1ed
100
AcDbEntity
  8
Layer_1
 62
1
100
AcDbLine
 10
25.912723
 20
4.356366
 30
0.0
 11
25.057590
 21
4.356366
 31
0.0
  0
LINE
  5
1ee
100
AcDbEntity
  8
Layer_1
 62
1
100
AcDbLine
 10
25.057590
 20
4.356366
 30
0.0
 11
26.192123
 21
2.184666
 31
0.0
  0
LINE
  5
1ef
100
AcDbEntity
  8
Layer_1
 62
1
100
AcDbLine
 10
26.192123
 20
2.184666
 30
0.0
 11
26.691657
 21
2.184666
 31
0.0
  0
LINE
  5
1f0
100
AcDbEntity
  8
Layer_1
 62
1
100
AcDbLine
 10
26.691657
 20
2.184666
 30
0.0
 11
27.229290
 21
3.374233
 31
0.0
  0
LINE
  5
1f1
100
AcDbEntity
  8
Layer_1
 62
1
100
AcDbLine
 10
27.229290
 20
3.374233
 30
0.0
 11
27.766923
 21
2.184666
 31
0.0
  0
LINE
  5
1f2
100
AcDbEntity
  8
Layer_1
 62
1
100
AcDbLine
 10
27.766923
 20
2.184666
 30
0.0
 11
28.266457
 21
2.184666
 31
0.0
  0
LINE
  5
1f3
100
AcDbEntity
  8
Layer_1
 62
1
100
AcDbLine
 10
28.266457
 20
2.184666
 30
0.0
 11
29.400990
 21
4.356366
 31
0.0
  0
LINE
  5
1f4
100
AcDbEntity
  8
Layer_1
 62
1
100
AcDbLine
 10
29.400990
 20
4.356366
 30
0.0
 11
28.550090
 21
4.356366
 31
0.0
  0
LINE
  5
1f5
100
AcDbEntity
  8
Layer_1
 62
1
100
AcDbLine
 10
28.550090
 20
4.356366
 30
0.0
 11
28.003990
 21
3.179500
 31
0.0
  0
LINE
  5
1f6
100
AcDbEntity
  8
Layer_1
 62
1
100
AcDbLine
 10
28.003990
 20
3.179500
 30
0.0
 11
27.457890
 21
4.356366
 31
0.0
  0
LINE
  5
1f7
100
AcDbEntity
  8
Layer_1
 62
1
100
AcDbLine
 10
27.457890
 20
4.356366
 30
0.0
 11
27.000690
 21
4.356366
 31
0.0
  0
LINE
  5
1f8
100
AcDbEntity
  8
Layer_1
 62
1
100
AcDbLine
 10
27.000690
 20
4.356366
 30
0.0
 11
26.454590
 21
3.179500
 31
0.0
  0
LINE
  5
1f9
100
AcDbEntity
  8
Layer_1
 62
1
100
AcDbLine
 10
26.454590
 20
3.179500
 30
0.0
 11
25.912723
 21
4.356366
 31
0.0
  0
LINE
  5
1fa
100
AcDbEntity
  8
Layer_1
 62
1
100
AcDbLine
 10
25.912723
 20
4.356366
 30
0.0
 11
25.912723
 21
4.356366
 31
0.0
  0
LINE
  5
1fb
100
AcDbEntity
  8
Layer_1
 62
1
100
AcDbLine
 10
30.129521
 20
4.356366
 30
0.0
 11
29.274388
 21
4.356366
 31
0.0
  0
LINE
  5
1fc
100
AcDbEntity
  8
Layer_1
 62
1
100
AcDbLine
 10
29.274388
 20
4.356366
 30
0.0
 11
30.408921
 21
2.184666
 31
0.0
  0
LINE
  5
1fd
100
AcDbEntity
  8
Layer_1
 62
1
100
AcDbLine
 10
30.408921
 20
2.184666
 30
0.0
 11
30.908454
 21
2.184666
 31
0.0
  0
LINE
  5
1fe
100
AcDbEntity
  8
Layer_1
 62
1
100
AcDbLine
 10
30.908454
 20
2.184666
 30
0.0
 11
31.446088
 21
3.374233
 31
0.0
  0
LINE
  5
1ff
100
AcDbEntity
  8
Layer_1
 62
1
100
AcDbLine
 10
31.446088
 20
3.374233
 30
0.0
 11
31.983721
 21
2.184666
 31
0.0
  0
LINE
  5
200
100
AcDbEntity
  8
Layer_1
 62
1
100
AcDbLine
 10
31.983721
 20
2.184666
 30
0.0
 11
32.483254
 21
2.184666
 31
0.0
  0
LINE
  5
201
100
AcDbEntity
  8
Layer_1
 62
1
100
AcDbLine
 10
32.483254
 20
2.184666
 30
0.0
 11
33.617788
 21
4.356366
 31
0.0
  0
LINE
  5
202
100
AcDbEntity
  8
Layer_1
 62
1
100
AcDbLine
 10
33.617788
 20
4.356366
 30
0.0
 11
32.766888
 21
4.356366
 31
0.0
  0
LINE
  5
203
100
AcDbEntity
  8
Layer_1
 62
1
100
AcDbLine
 10
32.766888
 20
4.356366
 30
0.0
 11
32.220788
 21
3.179500
 31
0.0
  0
LINE
  5
204
100
AcDbEntity
  8
Layer_1
 62
1
100
AcDbLine
 10
32.220788
 20
3.179500
 30
0.0
 11
31.674688
 21
4.356366
 31
0.0
  0
LINE
  5
205
100
AcDbEntity
  8
Layer_1
 62
1
100
AcDbLine
 10
31.674688
 20
4.356366
 30
0.0
 11
31.217488
 21
4.356366
 31
0.0
  0
LINE
  5
206
100
AcDbEntity
  8
Layer_1
 62
1
100
AcDbLine
 10
31.217488
 20
4.356366
 30
0.0
 11
30.671388
 21
3.179500
 31
0.0
  0
LINE
  5
207
100
AcDbEntity
  8
Layer_1
 62
1
100
AcDbLine
 10
30.671388
 20
3.179500
 30
0.0
 11
30.129521
 21
4.356366
 31
0.0
  0
LINE
  5
208
100
AcDbEntity
  8
Layer_1
 62
1
100
AcDbLine
 10
30.129521
 20
4.356366
 30
0.0
 11
30.129521
 21
4.356366
 31
0.0
  0
SPLINE
  5
209
100
AcDbEntity
  8
Layer_1
 62
1
100
AcDbSpline
 70
8
 71
3
 72
8
 73
4
 74
0
 40
0
 40
0
 40
0
 40
0
 40
1
 40
1
 40
1
 40
1
 10
33.894210
 20
3.090600
 30
0.0
 10
33.619044
 20
3.090600
 30
0.0
 10
33.398910
 20
2.870466
 30
0.0
 10
33.398910
 20
2.595300
 30
0.0
  0
SPLINE
  5
20a
100
AcDbEntity
  8
Layer_1
 62
1
100
AcDbSpline
 70
8
 71
3
 72
8
 73
4
 74
0
 40
0
 40
0
 40
0
 40
0
 40
1
 40
1
 40
1
 40
1
 10
33.398910
 20
2.595300
 30
0.0
 10
33.398910
 20
2.324366
 30
0.0
 10
33.619044
 20
2.100000
 30
0.0
 10
33.894210
 20
2.100000
 30
0.0
  0
SPLINE
  5
20b
100
AcDbEntity
  8
Layer_1
 62
1
100
AcDbSpline
 70
8
 71
3
 72
8
 73
4
 74
0
 40
0
 40
0
 40
0
 40
0
 40
1
 40
1
 40
1
 40
1
 10
33.894210
 20
2.100000
 30
0.0
 10
34.169377
 20
2.100000
 30
0.0
 10
34.389510
 20
2.324366
 30
0.0
 10
34.389510
 20
2.595300
 30
0.0
  0
SPLINE
  5
20c
100
AcDbEntity
  8
Layer_1
 62
1
100
AcDbSpline
 70
8
 71
3
 72
8
 73
4
 74
0
 40
0
 40
0
 40
0
 40
0
 40
1
 40
1
 40
1
 40
1
 10
34.389510
 20
2.595300
 30
0.0
 10
34.389510
 20
2.870466
 30
0.0
 10
34.169377
 20
3.090600
 30
0.0
 10
33.894210
 20
3.090600
 30
0.0
  0
LINE
  5
20d
100
AcDbEntity
  8
Layer_1
 62
1
100
AcDbLine
 10
33.894210
 20
3.090600
 30
0.0
 11
33.894210
 21
3.090600
 31
0.0
  0
LINE
  5
20e
100
AcDbEntity
  8
Layer_1
 62
1
100
AcDbLine
 10
35.645752
 20
4.356366
 30
0.0
 11
34.875285
 21
4.356366
 31
0.0
  0
LINE
  5
20f
100
AcDbEntity
  8
Layer_1
 62
1
100
AcDbLine
 10
34.875285
 20
4.356366
 30
0.0
 11
34.875285
 21
2.184666
 31
0.0
  0
LINE
  5
210
100
AcDbEntity
  8
Layer_1
 62
1
100
AcDbLine
 10
34.875285
 20
2.184666
 30
0.0
 11
35.645752
 21
2.184666
 31
0.0
  0
LINE
  5
211
100
AcDbEntity
  8
Layer_1
 62
1
100
AcDbLine
 10
35.645752
 20
2.184666
 30
0.0
 11
35.645752
 21
3.221833
 31
0.0
  0
SPLINE
  5
212
100
AcDbEntity
  8
Layer_1
 62
1
100
AcDbSpline
 70
8
 71
3
 72
8
 73
4
 74
0
 40
0
 40
0
 40
0
 40
0
 40
1
 40
1
 40
1
 40
1
 10
35.645752
 20
3.221833
 30
0.0
 10
35.645752
 20
3.463133
 30
0.0
 10
35.645752
 20
3.831433
 30
0.0
 10
35.988652
 20
3.831433
 30
0.0
  0
SPLINE
  5
213
100
AcDbEntity
  8
Layer_1
 62
1
100
AcDbSpline
 70
8
 71
3
 72
8
 73
4
 74
0
 40
0
 40
0
 40
0
 40
0
 40
1
 40
1
 40
1
 40
1
 10
35.988652
 20
3.831433
 30
0.0
 10
36.331552
 20
3.831433
 30
0.0
 10
36.331552
 20
3.463133
 30
0.0
 10
36.331552
 20
3.221833
 30
0.0
  0
LINE
  5
214
100
AcDbEntity
  8
Layer_1
 62
1
100
AcDbLine
 10
36.331552
 20
3.221833
 30
0.0
 11
36.331552
 21
2.184666
 31
0.0
  0
LINE
  5
215
100
AcDbEntity
  8
Layer_1
 62
1
100
AcDbLine
 10
36.331552
 20
2.184666
 30
0.0
 11
37.102019
 21
2.184666
 31
0.0
  0
LINE
  5
216
100
AcDbEntity
  8
Layer_1
 62
1
100
AcDbLine
 10
37.102019
 20
2.184666
 30
0.0
 11
37.102019
 21
3.221833
 31
0.0
  0
SPLINE
  5
217
100
AcDbEntity
  8
Layer_1
 62
1
100
AcDbSpline
 70
8
 71
3
 72
8
 73
4
 74
0
 40
0
 40
0
 40
0
 40
0
 40
1
 40
1
 40
1
 40
1
 10
37.102019
 20
3.221833
 30
0.0
 10
37.102019
 20
3.480066
 30
0.0
 10
37.114719
 20
3.814500
 30
0.0
 10
37.470319
 20
3.814500
 30
0.0
  0
SPLINE
  5
218
100
AcDbEntity
  8
Layer_1
 62
1
100
AcDbSpline
 70
8
 71
3
 72
8
 73
4
 74
0
 40
0
 40
0
 40
0
 40
0
 40
1
 40
1
 40
1
 40
1
 10
37.470319
 20
3.814500
 30
0.0
 10
37.796285
 20
3.814500
 30
0.0
 10
37.787819
 20
3.446200
 30
0.0
 10
37.787819
 20
3.221833
 30
0.0
  0
LINE
  5
219
100
AcDbEntity
  8
Layer_1
 62
1
100
AcDbLine
 10
37.787819
 20
3.221833
 30
0.0
 11
37.787819
 21
2.184666
 31
0.0
  0
LINE
  5
21a
100
AcDbEntity
  8
Layer_1
 62
1
100
AcDbLine
 10
37.787819
 20
2.184666
 30
0.0
 11
38.558285
 21
2.184666
 31
0.0
  0
LINE
  5
21b
100
AcDbEntity
  8
Layer_1
 62
1
100
AcDbLine
 10
38.558285
 20
2.184666
 30
0.0
 11
38.558285
 21
3.568966
 31
0.0
  0
SPLINE
  5
21c
100
AcDbEntity
  8
Layer_1
 62
1
100
AcDbSpline
 70
8
 71
3
 72
8
 73
4
 74
0
 40
0
 40
0
 40
0
 40
0
 40
1
 40
1
 40
1
 40
1
 10
38.558285
 20
3.568966
 30
0.0
 10
38.558285
 20
4.068500
 30
0.0
 10
38.367785
 20
4.428333
 30
0.0
 10
37.817452
 20
4.428333
 30
0.0
  0
SPLINE
  5
21d
100
AcDbEntity
  8
Layer_1
 62
1
100
AcDbSpline
 70
8
 71
3
 72
8
 73
4
 74
0
 40
0
 40
0
 40
0
 40
0
 40
1
 40
1
 40
1
 40
1
 10
37.817452
 20
4.428333
 30
0.0
 10
37.521119
 20
4.428333
 30
0.0
 10
37.229019
 20
4.284400
 30
0.0
 10
37.080852
 20
4.013466
 30
0.0
  0
SPLINE
  5
21e
100
AcDbEntity
  8
Layer_1
 62
1
100
AcDbSpline
 70
8
 71
3
 72
8
 73
4
 74
0
 40
0
 40
0
 40
0
 40
0
 40
1
 40
1
 40
1
 40
1
 10
37.080852
 20
4.013466
 30
0.0
 10
36.924219
 20
4.301333
 30
0.0
 10
36.653285
 20
4.428333
 30
0.0
 10
36.340019
 20
4.428333
 30
0.0
  0
SPLINE
  5
21f
100
AcDbEntity
  8
Layer_1
 62
1
100
AcDbSpline
 70
8
 71
3
 72
8
 73
4
 74
0
 40
0
 40
0
 40
0
 40
0
 40
1
 40
1
 40
1
 40
1
 10
36.340019
 20
4.428333
 30
0.0
 10
36.060619
 20
4.428333
 30
0.0
 10
35.836252
 20
4.326733
 30
0.0
 10
35.654219
 20
4.085433
 30
0.0
  0
LINE
  5
220
100
AcDbEntity
  8
Layer_1
 62
1
100
AcDbLine
 10
35.654219
 20
4.085433
 30
0.0
 11
35.645752
 21
4.085433
 31
0.0
  0
LINE
  5
221
100
AcDbEntity
  8
Layer_1
 62
1
100
AcDbLine
 10
35.645752
 20
4.085433
 30
0.0
 11
35.645752
 21
4.356366
 31
0.0
  0
LINE
  5
222
100
AcDbEntity
  8
Layer_1
 62
1
100
AcDbLine
 10
35.645752
 20
4.356366
 30
0.0
 11
35.645752
 21
4.356366
 31
0.0
  0
LINE
  5
223
100
AcDbEntity
  8
Layer_1
 62
1
100
AcDbLine
 10
39.825243
 20
3.361533
 30
0.0
 11
38.741510
 21
2.184666
 31
0.0
  0
LINE
  5
224
100
AcDbEntity
  8
Layer_1
 62
1
100
AcDbLine
 10
38.741510
 20
2.184666
 30
0.0
 11
39.753276
 21
2.184666
 31
0.0
  0
LINE
  5
225
100
AcDbEntity
  8
Layer_1
 62
1
100
AcDbLine
 10
39.753276
 20
2.184666
 30
0.0
 11
40.312076
 21
2.828133
 31
0.0
  0
LINE
  5
226
100
AcDbEntity
  8
Layer_1
 62
1
100
AcDbLine
 10
40.312076
 20
2.828133
 30
0.0
 11
40.870876
 21
2.184666
 31
0.0
  0
LINE
  5
227
100
AcDbEntity
  8
Layer_1
 62
1
100
AcDbLine
 10
40.870876
 20
2.184666
 30
0.0
 11
41.882643
 21
2.184666
 31
0.0
  0
LINE
  5
228
100
AcDbEntity
  8
Layer_1
 62
1
100
AcDbLine
 10
41.882643
 20
2.184666
 30
0.0
 11
40.798910
 21
3.361533
 31
0.0
  0
LINE
  5
229
100
AcDbEntity
  8
Layer_1
 62
1
100
AcDbLine
 10
40.798910
 20
3.361533
 30
0.0
 11
41.696376
 21
4.356366
 31
0.0
  0
LINE
  5
22a
100
AcDbEntity
  8
Layer_1
 62
1
100
AcDbLine
 10
41.696376
 20
4.356366
 30
0.0
 11
40.701543
 21
4.356366
 31
0.0
  0
LINE
  5
22b
100
AcDbEntity
  8
Layer_1
 62
1
100
AcDbLine
 10
40.701543
 20
4.356366
 30
0.0
 11
40.312076
 21
3.907633
 31
0.0
  0
LINE
  5
22c
100
AcDbEntity
  8
Layer_1
 62
1
100
AcDbLine
 10
40.312076
 20
3.907633
 30
0.0
 11
39.922610
 21
4.356366
 31
0.0
  0
LINE
  5
22d
100
AcDbEntity
  8
Layer_1
 62
1
100
AcDbLine
 10
39.922610
 20
4.356366
 30
0.0
 11
38.944710
 21
4.356366
 31
0.0
  0
LINE
  5
22e
100
AcDbEntity
  8
Layer_1
 62
1
100
AcDbLine
 10
38.944710
 20
4.356366
 30
0.0
 11
39.825243
 21
3.361533
 31
0.0
  0
LINE
  5
22f
100
AcDbEntity
  8
Layer_1
 62
1
100
AcDbLine
 10
39.825243
 20
3.361533
 30
0.0
 11
39.825243
 21
3.361533
 31
0.0
  0
SPLINE
  5
230
100
AcDbEntity
  8
Layer_1
 62
1
100
AcDbSpline
 70
8
 71
3
 72
8
 73
4
 74
0
 40
0
 40
0
 40
0
 40
0
 40
1
 40
1
 40
1
 40
1
 10
43.211447
 20
3.759466
 30
0.0
 10
43.524713
 20
3.759466
 30
0.0
 10
43.706747
 20
3.535100
 30
0.0
 10
43.706747
 20
3.268400
 30
0.0
  0
SPLINE
  5
231
100
AcDbEntity
  8
Layer_1
 62
1
100
AcDbSpline
 70
8
 71
3
 72
8
 73
4
 74
0
 40
0
 40
0
 40
0
 40
0
 40
1
 40
1
 40
1
 40
1
 10
43.706747
 20
3.268400
 30
0.0
 10
43.706747
 20
2.993233
 30
0.0
 10
43.524713
 20
2.781566
 30
0.0
 10
43.211447
 20
2.781566
 30
0.0
  0
SPLINE
  5
232
100
AcDbEntity
  8
Layer_1
 62
1
100
AcDbSpline
 70
8
 71
3
 72
8
 73
4
 74
0
 40
0
 40
0
 40
0
 40
0
 40
1
 40
1
 40
1
 40
1
 10
43.211447
 20
2.781566
 30
0.0
 10
42.898180
 20
2.781566
 30
0.0
 10
42.716147
 20
2.993233
 30
0.0
 10
42.716147
 20
3.268400
 30
0.0
  0
SPLINE
  5
233
100
AcDbEntity
  8
Layer_1
 62
1
100
AcDbSpline
 70
8
 71
3
 72
8
 73
4
 74
0
 40
0
 40
0
 40
0
 40
0
 40
1
 40
1
 40
1
 40
1
 10
42.716147
 20
3.268400
 30
0.0
 10
42.716147
 20
3.535100
 30
0.0
 10
42.898180
 20
3.759466
 30
0.0
 10
43.211447
 20
3.759466
 30
0.0
  0
LINE
  5
234
100
AcDbEntity
  8
Layer_1
 62
1
100
AcDbLine
 10
43.211447
 20
3.759466
 30
0.0
 11
43.211447
 21
3.759466
 31
0.0
  0
LINE
  5
235
100
AcDbEntity
  8
Layer_1
 62
1
100
AcDbLine
 10
44.451813
 20
4.356366
 30
0.0
 11
43.681347
 21
4.356366
 31
0.0
  0
LINE
  5
236
100
AcDbEntity
  8
Layer_1
 62
1
100
AcDbLine
 10
43.681347
 20
4.356366
 30
0.0
 11
43.681347
 21
4.144700
 31
0.0
  0
SPLINE
  5
237
100
AcDbEntity
  8
Layer_1
 62
1
100
AcDbSpline
 70
8
 71
3
 72
8
 73
4
 74
0
 40
0
 40
0
 40
0
 40
0
 40
1
 40
1
 40
1
 40
1
 10
43.681347
 20
4.144700
 30
0.0
 10
43.520480
 20
4.335200
 30
0.0
 10
43.258013
 20
4.428333
 30
0.0
 10
43.008247
 20
4.428333
 30
0.0
  0
SPLINE
  5
238
100
AcDbEntity
  8
Layer_1
 62
1
100
AcDbSpline
 70
8
 71
3
 72
8
 73
4
 74
0
 40
0
 40
0
 40
0
 40
0
 40
1
 40
1
 40
1
 40
1
 10
43.008247
 20
4.428333
 30
0.0
 10
42.364780
 20
4.428333
 30
0.0
 10
41.920280
 20
3.894933
 30
0.0
 10
41.920280
 20
3.272633
 30
0.0
  0
SPLINE
  5
239
100
AcDbEntity
  8
Layer_1
 62
1
100
AcDbSpline
 70
8
 71
3
 72
8
 73
4
 74
0
 40
0
 40
0
 40
0
 40
0
 40
1
 40
1
 40
1
 40
1
 10
41.920280
 20
3.272633
 30
0.0
 10
41.920280
 20
2.650333
 30
0.0
 10
42.373247
 20
2.112700
 30
0.0
 10
43.016713
 20
2.112700
 30
0.0
  0
SPLINE
  5
23a
100
AcDbEntity
  8
Layer_1
 62
1
100
AcDbSpline
 70
8
 71
3
 72
8
 73
4
 74
0
 40
0
 40
0
 40
0
 40
0
 40
1
 40
1
 40
1
 40
1
 10
43.016713
 20
2.112700
 30
0.0
 10
43.270713
 20
2.112700
 30
0.0
 10
43.537413
 20
2.210066
 30
0.0
 10
43.672880
 20
2.425966
 30
0.0
  0
LINE
  5
23b
100
AcDbEntity
  8
Layer_1
 62
1
100
AcDbLine
 10
43.672880
 20
2.425966
 30
0.0
 11
43.681347
 21
2.425966
 31
0.0
  0
LINE
  5
23c
100
AcDbEntity
  8
Layer_1
 62
1
100
AcDbLine
 10
43.681347
 20
2.425966
 30
0.0
 11
43.681347
 21
2.184666
 31
0.0
  0
LINE
  5
23d
100
AcDbEntity
  8
Layer_1
 62
1
100
AcDbLine
 10
43.681347
 20
2.184666
 30
0.0
 11
44.451813
 21
2.184666
 31
0.0
  0
LINE
  5
23e
100
AcDbEntity
  8
Layer_1
 62
1
100
AcDbLine
 10
44.451813
 20
2.184666
 30
0.0
 11
44.451813
 21
4.356366
 31
0.0
  0
LINE
  5
23f
100
AcDbEntity
  8
Layer_1
 62
1
100
AcDbLine
 10
44.451813
 20
4.356366
 30
0.0
 11
44.451813
 21
4.356366
 31
0.0
  0
LINE
  5
240
100
AcDbEntity
  8
Layer_1
 62
1
100
AcDbLine
 10
45.732992
 20
4.356366
 30
0.0
 11
44.962526
 21
4.356366
 31
0.0
  0
LINE
  5
241
100
AcDbEntity
  8
Layer_1
 62
1
100
AcDbLine
 10
44.962526
 20
4.356366
 30
0.0
 11
44.962526
 21
2.184666
 31
0.0
  0
LINE
  5
242
100
AcDbEntity
  8
Layer_1
 62
1
100
AcDbLine
 10
44.962526
 20
2.184666
 30
0.0
 11
45.732992
 21
2.184666
 31
0.0
  0
LINE
  5
243
100
AcDbEntity
  8
Layer_1
 62
1
100
AcDbLine
 10
45.732992
 20
2.184666
 30
0.0
 11
45.732992
 21
4.356366
 31
0.0
  0
LINE
  5
244
100
AcDbEntity
  8
Layer_1
 62
1
100
AcDbLine
 10
45.732992
 20
4.356366
 30
0.0
 11
45.732992
 21
4.356366
 31
0.0
  0
SPLINE
  5
245
100
AcDbEntity
  8
Layer_1
 62
1
100
AcDbSpline
 70
8
 71
3
 72
8
 73
4
 74
0
 40
0
 40
0
 40
0
 40
0
 40
1
 40
1
 40
1
 40
1
 10
45.347759
 20
5.622133
 30
0.0
 10
45.110692
 20
5.622133
 30
0.0
 10
44.915959
 20
5.427400
 30
0.0
 10
44.915959
 20
5.190333
 30
0.0
  0
SPLINE
  5
246
100
AcDbEntity
  8
Layer_1
 62
1
100
AcDbSpline
 70
8
 71
3
 72
8
 73
4
 74
0
 40
0
 40
0
 40
0
 40
0
 40
1
 40
1
 40
1
 40
1
 10
44.915959
 20
5.190333
 30
0.0
 10
44.915959
 20
4.953266
 30
0.0
 10
45.110692
 20
4.758533
 30
0.0
 10
45.347759
 20
4.758533
 30
0.0
  0
SPLINE
  5
247
100
AcDbEntity
  8
Layer_1
 62
1
100
AcDbSpline
 70
8
 71
3
 72
8
 73
4
 74
0
 40
0
 40
0
 40
0
 40
0
 40
1
 40
1
 40
1
 40
1
 10
45.347759
 20
4.758533
 30
0.0
 10
45.584826
 20
4.758533
 30
0.0
 10
45.779559
 20
4.953266
 30
0.0
 10
45.779559
 20
5.190333
 30
0.0
  0
SPLINE
  5
248
100
AcDbEntity
  8
Layer_1
 62
1
100
AcDbSpline
 70
8
 71
3
 72
8
 73
4
 74
0
 40
0
 40
0
 40
0
 40
0
 40
1
 40
1
 40
1
 40
1
 10
45.779559
 20
5.190333
 30
0.0
 10
45.779559
 20
5.427400
 30
0.0
 10
45.584826
 20
5.622133
 30
0.0
 10
45.347759
 20
5.622133
 30
0.0
  0
LINE
  5
249
100
AcDbEntity
  8
Layer_1
 62
1
100
AcDbLine
 10
45.347759
 20
5.622133
 30
0.0
 11
45.347759
 21
5.622133
 31
0.0
  0
LINE
  5
24a
100
AcDbEntity
  8
Layer_1
 62
1
100
AcDbLine
 10
47.086533
 20
3.721366
 30
0.0
 11
47.522566
 21
3.721366
 31
0.0
  0
LINE
  5
24b
100
AcDbEntity
  8
Layer_1
 62
1
100
AcDbLine
 10
47.522566
 20
3.721366
 30
0.0
 11
47.522566
 21
4.356366
 31
0.0
  0
LINE
  5
24c
100
AcDbEntity
  8
Layer_1
 62
1
100
AcDbLine
 10
47.522566
 20
4.356366
 30
0.0
 11
47.086533
 21
4.356366
 31
0.0
  0
LINE
  5
24d
100
AcDbEntity
  8
Layer_1
 62
1
100
AcDbLine
 10
47.086533
 20
4.356366
 30
0.0
 11
47.086533
 21
5.008300
 31
0.0
  0
LINE
  5
24e
100
AcDbEntity
  8
Layer_1
 62
1
100
AcDbLine
 10
47.086533
 20
5.008300
 30
0.0
 11
46.316066
 21
5.008300
 31
0.0
  0
LINE
  5
24f
100
AcDbEntity
  8
Layer_1
 62
1
100
AcDbLine
 10
46.316066
 20
5.008300
 30
0.0
 11
46.316066
 21
4.356366
 31
0.0
  0
LINE
  5
250
100
AcDbEntity
  8
Layer_1
 62
1
100
AcDbLine
 10
46.316066
 20
4.356366
 30
0.0
 11
46.066300
 21
4.356366
 31
0.0
  0
LINE
  5
251
100
AcDbEntity
  8
Layer_1
 62
1
100
AcDbLine
 10
46.066300
 20
4.356366
 30
0.0
 11
46.066300
 21
3.721366
 31
0.0
  0
LINE
  5
252
100
AcDbEntity
  8
Layer_1
 62
1
100
AcDbLine
 10
46.066300
 20
3.721366
 30
0.0
 11
46.316066
 21
3.721366
 31
0.0
  0
LINE
  5
253
100
AcDbEntity
  8
Layer_1
 62
1
100
AcDbLine
 10
46.316066
 20
3.721366
 30
0.0
 11
46.316066
 21
2.184666
 31
0.0
  0
LINE
  5
254
100
AcDbEntity
  8
Layer_1
 62
1
100
AcDbLine
 10
46.316066
 20
2.184666
 30
0.0
 11
47.086533
 21
2.184666
 31
0.0
  0
LINE
  5
255
100
AcDbEntity
  8
Layer_1
 62
1
100
AcDbLine
 10
47.086533
 20
2.184666
 30
0.0
 11
47.086533
 21
3.721366
 31
0.0
  0
LINE
  5
256
100
AcDbEntity
  8
Layer_1
 62
1
100
AcDbLine
 10
47.086533
 20
3.721366
 30
0.0
 11
47.086533
 21
3.721366
 31
0.0
  0
LINE
  5
257
100
AcDbEntity
  8
Layer_1
 62
1
100
AcDbLine
 10
47.765455
 20
5.698333
 30
0.0
 11
47.765455
 21
2.184666
 31
0.0
  0
LINE
  5
258
100
AcDbEntity
  8
Layer_1
 62
1
100
AcDbLine
 10
47.765455
 20
2.184666
 30
0.0
 11
48.535922
 21
2.184666
 31
0.0
  0
LINE
  5
259
100
AcDbEntity
  8
Layer_1
 62
1
100
AcDbLine
 10
48.535922
 20
2.184666
 30
0.0
 11
48.535922
 21
3.298033
 31
0.0
  0
SPLINE
  5
25a
100
AcDbEntity
  8
Layer_1
 62
1
100
AcDbSpline
 70
8
 71
3
 72
8
 73
4
 74
0
 40
0
 40
0
 40
0
 40
0
 40
1
 40
1
 40
1
 40
1
 10
48.535922
 20
3.298033
 30
0.0
 10
48.535922
 20
3.552033
 30
0.0
 10
48.633288
 20
3.814500
 30
0.0
 10
48.938088
 20
3.814500
 30
0.0
  0
SPLINE
  5
25b
100
AcDbEntity
  8
Layer_1
 62
1
100
AcDbSpline
 70
8
 71
3
 72
8
 73
4
 74
0
 40
0
 40
0
 40
0
 40
0
 40
1
 40
1
 40
1
 40
1
 10
48.938088
 20
3.814500
 30
0.0
 10
49.247122
 20
3.814500
 30
0.0
 10
49.285222
 20
3.552033
 30
0.0
 10
49.285222
 20
3.298033
 30
0.0
  0
LINE
  5
25c
100
AcDbEntity
  8
Layer_1
 62
1
100
AcDbLine
 10
49.285222
 20
3.298033
 30
0.0
 11
49.285222
 21
2.184666
 31
0.0
  0
LINE
  5
25d
100
AcDbEntity
  8
Layer_1
 62
1
100
AcDbLine
 10
49.285222
 20
2.184666
 30
0.0
 11
50.055688
 21
2.184666
 31
0.0
  0
LINE
  5
25e
100
AcDbEntity
  8
Layer_1
 62
1
100
AcDbLine
 10
50.055688
 20
2.184666
 30
0.0
 11
50.055688
 21
3.513933
 31
0.0
  0
SPLINE
  5
25f
100
AcDbEntity
  8
Layer_1
 62
1
100
AcDbSpline
 70
8
 71
3
 72
8
 73
4
 74
0
 40
0
 40
0
 40
0
 40
0
 40
1
 40
1
 40
1
 40
1
 10
50.055688
 20
3.513933
 30
0.0
 10
50.055688
 20
4.064266
 30
0.0
 10
49.788988
 20
4.428333
 30
0.0
 10
49.238655
 20
4.428333
 30
0.0
  0
SPLINE
  5
260
100
AcDbEntity
  8
Layer_1
 62
1
100
AcDbSpline
 70
8
 71
3
 72
8
 73
4
 74
0
 40
0
 40
0
 40
0
 40
0
 40
1
 40
1
 40
1
 40
1
 10
49.238655
 20
4.428333
 30
0.0
 10
48.938088
 20
4.428333
 30
0.0
 10
48.722188
 20
4.318266
 30
0.0
 10
48.544388
 20
4.081200
 30
0.0
  0
LINE
  5
261
100
AcDbEntity
  8
Layer_1
 62
1
100
AcDbLine
 10
48.544388
 20
4.081200
 30
0.0
 11
48.535922
 21
4.081200
 31
0.0
  0
LINE
  5
262
100
AcDbEntity
  8
Layer_1
 62
1
100
AcDbLine
 10
48.535922
 20
4.081200
 30
0.0
 11
48.535922
 21
5.698333
 31
0.0
  0
LINE
  5
263
100
AcDbEntity
  8
Layer_1
 62
1
100
AcDbLine
 10
48.535922
 20
5.698333
 30
0.0
 11
47.765455
 21
5.698333
 31
0.0
  0
LINE
  5
264
100
AcDbEntity
  8
Layer_1
 62
1
100
AcDbLine
 10
47.765455
 20
5.698333
 30
0.0
 11
47.765455
 21
5.698333
 31
0.0
  0
LINE
  5
265
100
AcDbEntity
  8
Layer_1
 62
1
100
AcDbLine
 10
51.330582
 20
4.356366
 30
0.0
 11
50.560116
 21
4.356366
 31
0.0
  0
LINE
  5
266
100
AcDbEntity
  8
Layer_1
 62
1
100
AcDbLine
 10
50.560116
 20
4.356366
 30
0.0
 11
50.560116
 21
2.184666
 31
0.0
  0
LINE
  5
267
100
AcDbEntity
  8
Layer_1
 62
1
100
AcDbLine
 10
50.560116
 20
2.184666
 30
0.0
 11
51.330582
 21
2.184666
 31
0.0
  0
LINE
  5
268
100
AcDbEntity
  8
Layer_1
 62
1
100
AcDbLine
 10
51.330582
 20
2.184666
 30
0.0
 11
51.330582
 21
3.310733
 31
0.0
  0
SPLINE
  5
269
100
AcDbEntity
  8
Layer_1
 62
1
100
AcDbSpline
 70
8
 71
3
 72
8
 73
4
 74
0
 40
0
 40
0
 40
0
 40
0
 40
1
 40
1
 40
1
 40
1
 10
51.330582
 20
3.310733
 30
0.0
 10
51.330582
 20
3.581666
 30
0.0
 10
51.419482
 20
3.814500
 30
0.0
 10
51.732749
 20
3.814500
 30
0.0
  0
SPLINE
  5
26a
100
AcDbEntity
  8
Layer_1
 62
1
100
AcDbSpline
 70
8
 71
3
 72
8
 73
4
 74
0
 40
0
 40
0
 40
0
 40
0
 40
1
 40
1
 40
1
 40
1
 10
51.732749
 20
3.814500
 30
0.0
 10
52.113749
 20
3.814500
 30
0.0
 10
52.079882
 20
3.450433
 30
0.0
 10
52.079882
 20
3.243000
 30
0.0
  0
LINE
  5
26b
100
AcDbEntity
  8
Layer_1
 62
1
100
AcDbLine
 10
52.079882
 20
3.243000
 30
0.0
 11
52.079882
 21
2.184666
 31
0.0
  0
LINE
  5
26c
100
AcDbEntity
  8
Layer_1
 62
1
100
AcDbLine
 10
52.079882
 20
2.184666
 30
0.0
 11
52.850349
 21
2.184666
 31
0.0
  0
LINE
  5
26d
100
AcDbEntity
  8
Layer_1
 62
1
100
AcDbLine
 10
52.850349
 20
2.184666
 30
0.0
 11
52.850349
 21
3.526633
 31
0.0
  0
SPLINE
  5
26e
100
AcDbEntity
  8
Layer_1
 62
1
100
AcDbSpline
 70
8
 71
3
 72
8
 73
4
 74
0
 40
0
 40
0
 40
0
 40
0
 40
1
 40
1
 40
1
 40
1
 10
52.850349
 20
3.526633
 30
0.0
 10
52.850349
 20
4.060033
 30
0.0
 10
52.617516
 20
4.428333
 30
0.0
 10
52.033316
 20
4.428333
 30
0.0
  0
SPLINE
  5
26f
100
AcDbEntity
  8
Layer_1
 62
1
100
AcDbSpline
 70
8
 71
3
 72
8
 73
4
 74
0
 40
0
 40
0
 40
0
 40
0
 40
1
 40
1
 40
1
 40
1
 10
52.033316
 20
4.428333
 30
0.0
 10
51.732749
 20
4.428333
 30
0.0
 10
51.516849
 20
4.339433
 30
0.0
 10
51.339049
 20
4.076966
 30
0.0
  0
LINE
  5
270
100
AcDbEntity
  8
Layer_1
 62
1
100
AcDbLine
 10
51.339049
 20
4.076966
 30
0.0
 11
51.330582
 21
4.076966
 31
0.0
  0
LINE
  5
271
100
AcDbEntity
  8
Layer_1
 62
1
100
AcDbLine
 10
51.330582
 20
4.076966
 30
0.0
 11
51.330582
 21
4.356366
 31
0.0
  0
LINE
  5
272
100
AcDbEntity
  8
Layer_1
 62
1
100
AcDbLine
 10
51.330582
 20
4.356366
 30
0.0
 11
51.330582
 21
4.356366
 31
0.0
  0
SPLINE
  5
273
100
AcDbEntity
  8
Layer_1
 62
1
100
AcDbSpline
 70
8
 71
3
 72
8
 73
4
 74
0
 40
0
 40
0
 40
0
 40
0
 40
1
 40
1
 40
1
 40
1
 10
53.977076
 20
3.585900
 30
0.0
 10
54.023643
 20
3.810266
 30
0.0
 10
54.209909
 20
3.928800
 30
0.0
 10
54.434276
 20
3.928800
 30
0.0
  0
SPLINE
  5
274
100
AcDbEntity
  8
Layer_1
 62
1
100
AcDbSpline
 70
8
 71
3
 72
8
 73
4
 74
0
 40
0
 40
0
 40
0
 40
0
 40
1
 40
1
 40
1
 40
1
 10
54.434276
 20
3.928800
 30
0.0
 10
54.641709
 20
3.928800
 30
0.0
 10
54.832209
 20
3.793333
 30
0.0
 10
54.870309
 20
3.585900
 30
0.0
  0
LINE
  5
275
100
AcDbEntity
  8
Layer_1
 62
1
100
AcDbLine
 10
54.870309
 20
3.585900
 30
0.0
 11
53.977076
 21
3.585900
 31
0.0
  0
LINE
  5
276
100
AcDbEntity
  8
Layer_1
 62
1
100
AcDbLine
 10
53.977076
 20
3.585900
 30
0.0
 11
53.977076
 21
3.585900
 31
0.0
  0
SPLINE
  5
277
100
AcDbEntity
  8
Layer_1
 62
1
100
AcDbSpline
 70
8
 71
3
 72
8
 73
4
 74
0
 40
0
 40
0
 40
0
 40
0
 40
1
 40
1
 40
1
 40
1
 10
55.585743
 20
3.221833
 30
0.0
 10
55.585743
 20
3.962666
 30
0.0
 10
55.149709
 20
4.428333
 30
0.0
 10
54.396176
 20
4.428333
 30
0.0
  0
SPLINE
  5
278
100
AcDbEntity
  8
Layer_1
 62
1
100
AcDbSpline
 70
8
 71
3
 72
8
 73
4
 74
0
 40
0
 40
0
 40
0
 40
0
 40
1
 40
1
 40
1
 40
1
 10
54.396176
 20
4.428333
 30
0.0
 10
53.689209
 20
4.428333
 30
0.0
 10
53.193909
 20
3.992300
 30
0.0
 10
53.193909
 20
3.268400
 30
0.0
  0
SPLINE
  5
279
100
AcDbEntity
  8
Layer_1
 62
1
100
AcDbSpline
 70
8
 71
3
 72
8
 73
4
 74
0
 40
0
 40
0
 40
0
 40
0
 40
1
 40
1
 40
1
 40
1
 10
53.193909
 20
3.268400
 30
0.0
 10
53.193909
 20
2.519100
 30
0.0
 10
53.731543
 20
2.112700
 30
0.0
 10
54.451209
 20
2.112700
 30
0.0
  0
SPLINE
  5
27a
100
AcDbEntity
  8
Layer_1
 62
1
100
AcDbSpline
 70
8
 71
3
 72
8
 73
4
 74
0
 40
0
 40
0
 40
0
 40
0
 40
1
 40
1
 40
1
 40
1
 10
54.451209
 20
2.112700
 30
0.0
 10
54.700976
 20
2.112700
 30
0.0
 10
54.946509
 20
2.171966
 30
0.0
 10
55.145476
 20
2.294733
 30
0.0
  0
SPLINE
  5
27b
100
AcDbEntity
  8
Layer_1
 62
1
100
AcDbSpline
 70
8
 71
3
 72
8
 73
4
 74
0
 40
0
 40
0
 40
0
 40
0
 40
1
 40
1
 40
1
 40
1
 10
55.145476
 20
2.294733
 30
0.0
 10
55.344443
 20
2.417500
 30
0.0
 10
55.496843
 20
2.603766
 30
0.0
 10
55.556109
 20
2.857766
 30
0.0
  0
LINE
  5
27c
100
AcDbEntity
  8
Layer_1
 62
1
100
AcDbLine
 10
55.556109
 20
2.857766
 30
0.0
 11
54.815276
 21
2.857766
 31
0.0
  0
SPLINE
  5
27d
100
AcDbEntity
  8
Layer_1
 62
1
100
AcDbSpline
 70
8
 71
3
 72
8
 73
4
 74
0
 40
0
 40
0
 40
0
 40
0
 40
1
 40
1
 40
1
 40
1
 10
54.815276
 20
2.857766
 30
0.0
 10
54.730609
 20
2.713833
 30
0.0
 10
54.612076
 20
2.658800
 30
0.0
 10
54.446976
 20
2.658800
 30
0.0
  0
SPLINE
  5
27e
100
AcDbEntity
  8
Layer_1
 62
1
100
AcDbSpline
 70
8
 71
3
 72
8
 73
4
 74
0
 40
0
 40
0
 40
0
 40
0
 40
1
 40
1
 40
1
 40
1
 10
54.446976
 20
2.658800
 30
0.0
 10
54.129476
 20
2.658800
 30
0.0
 10
53.964376
 20
2.828133
 30
0.0
 10
53.964376
 20
3.141400
 30
0.0
  0
LINE
  5
27f
100
AcDbEntity
  8
Layer_1
 62
1
100
AcDbLine
 10
53.964376
 20
3.141400
 30
0.0
 11
55.585743
 21
3.141400
 31
0.0
  0
LINE
  5
280
100
AcDbEntity
  8
Layer_1
 62
1
100
AcDbLine
 10
55.585743
 20
3.141400
 30
0.0
 11
55.585743
 21
3.221833
 31
0.0
  0
LINE
  5
281
100
AcDbEntity
  8
Layer_1
 62
1
100
AcDbLine
 10
55.585743
 20
3.221833
 30
0.0
 11
55.585743
 21
3.221833
 31
0.0
  0
SPLINE
  5
282
100
AcDbEntity
  8
Layer_1
 62
1
100
AcDbSpline
 70
8
 71
3
 72
8
 73
4
 74
0
 40
0
 40
0
 40
0
 40
0
 40
1
 40
1
 40
1
 40
1
 10
56.408598
 20
3.090600
 30
0.0
 10
56.133432
 20
3.090600
 30
0.0
 10
55.913298
 20
2.870466
 30
0.0
 10
55.913298
 20
2.595300
 30
0.0
  0
SPLINE
  5
283
100
AcDbEntity
  8
Layer_1
 62
1
100
AcDbSpline
 70
8
 71
3
 72
8
 73
4
 74
0
 40
0
 40
0
 40
0
 40
0
 40
1
 40
1
 40
1
 40
1
 10
55.913298
 20
2.595300
 30
0.0
 10
55.913298
 20
2.324366
 30
0.0
 10
56.133432
 20
2.100000
 30
0.0
 10
56.408598
 20
2.100000
 30
0.0
  0
SPLINE
  5
284
100
AcDbEntity
  8
Layer_1
 62
1
100
AcDbSpline
 70
8
 71
3
 72
8
 73
4
 74
0
 40
0
 40
0
 40
0
 40
0
 40
1
 40
1
 40
1
 40
1
 10
56.408598
 20
2.100000
 30
0.0
 10
56.683765
 20
2.100000
 30
0.0
 10
56.903898
 20
2.324366
 30
0.0
 10
56.903898
 20
2.595300
 30
0.0
  0
SPLINE
  5
285
100
AcDbEntity
  8
Layer_1
 62
1
100
AcDbSpline
 70
8
 71
3
 72
8
 73
4
 74
0
 40
0
 40
0
 40
0
 40
0
 40
1
 40
1
 40
1
 40
1
 10
56.903898
 20
2.595300
 30
0.0
 10
56.903898
 20
2.870466
 30
0.0
 10
56.683765
 20
3.090600
 30
0.0
 10
56.408598
 20
3.090600
 30
0.0
  0
LINE
  5
286
100
AcDbEntity
  8
Layer_1
 62
1
100
AcDbLine
 10
56.408598
 20
3.090600
 30
0.0
 11
56.408598
 21
3.090600
 31
0.0
  0
LINE
  5
287
100
AcDbEntity
  8
Layer_1
 62
1
100
AcDbLine
 10
57.376973
 20
4.356366
 30
0.0
 11
57.376973
 21
3.048266
 31
0.0
  0
SPLINE
  5
288
100
AcDbEntity
  8
Layer_1
 62
1
100
AcDbSpline
 70
8
 71
3
 72
8
 73
4
 74
0
 40
0
 40
0
 40
0
 40
0
 40
1
 40
1
 40
1
 40
1
 10
57.376973
 20
3.048266
 30
0.0
 10
57.376973
 20
2.332833
 30
0.0
 10
57.880740
 20
2.112700
 30
0.0
 10
58.532673
 20
2.112700
 30
0.0
  0
SPLINE
  5
289
100
AcDbEntity
  8
Layer_1
 62
1
100
AcDbSpline
 70
8
 71
3
 72
8
 73
4
 74
0
 40
0
 40
0
 40
0
 40
0
 40
1
 40
1
 40
1
 40
1
 10
58.532673
 20
2.112700
 30
0.0
 10
59.184607
 20
2.112700
 30
0.0
 10
59.688373
 20
2.332833
 30
0.0
 10
59.688373
 20
3.048266
 30
0.0
  0
LINE
  5
28a
100
AcDbEntity
  8
Layer_1
 62
1
100
AcDbLine
 10
59.688373
 20
3.048266
 30
0.0
 11
59.688373
 21
4.356366
 31
0.0
  0
LINE
  5
28b
100
AcDbEntity
  8
Layer_1
 62
1
100
AcDbLine
 10
59.688373
 20
4.356366
 30
0.0
 11
58.917907
 21
4.356366
 31
0.0
  0
LINE
  5
28c
100
AcDbEntity
  8
Layer_1
 62
1
100
AcDbLine
 10
58.917907
 20
4.356366
 30
0.0
 11
58.917907
 21
3.196433
 31
0.0
  0
SPLINE
  5
28d
100
AcDbEntity
  8
Layer_1
 62
1
100
AcDbSpline
 70
8
 71
3
 72
8
 73
4
 74
0
 40
0
 40
0
 40
0
 40
0
 40
1
 40
1
 40
1
 40
1
 10
58.917907
 20
3.196433
 30
0.0
 10
58.917907
 20
2.921266
 30
0.0
 10
58.850173
 20
2.726533
 30
0.0
 10
58.532673
 20
2.726533
 30
0.0
  0
SPLINE
  5
28e
100
AcDbEntity
  8
Layer_1
 62
1
100
AcDbSpline
 70
8
 71
3
 72
8
 73
4
 74
0
 40
0
 40
0
 40
0
 40
0
 40
1
 40
1
 40
1
 40
1
 10
58.532673
 20
2.726533
 30
0.0
 10
58.215173
 20
2.726533
 30
0.0
 10
58.147440
 20
2.921266
 30
0.0
 10
58.147440
 20
3.196433
 30
0.0
  0
LINE
  5
28f
100
AcDbEntity
  8
Layer_1
 62
1
100
AcDbLine
 10
58.147440
 20
3.196433
 30
0.0
 11
58.147440
 21
4.356366
 31
0.0
  0
LINE
  5
290
100
AcDbEntity
  8
Layer_1
 62
1
100
AcDbLine
 10
58.147440
 20
4.356366
 30
0.0
 11
57.376973
 21
4.356366
 31
0.0
  0
LINE
  5
291
100
AcDbEntity
  8
Layer_1
 62
1
100
AcDbLine
 10
57.376973
 20
4.356366
 30
0.0
 11
57.376973
 21
4.356366
 31
0.0
  0
LINE
  5
292
100
AcDbEntity
  8
Layer_1
 62
1
100
AcDbLine
 10
60.946534
 20
5.698333
 30
0.0
 11
60.176067
 21
5.698333
 31
0.0
  0
LINE
  5
293
100
AcDbEntity
  8
Layer_1
 62
1
100
AcDbLine
 10
60.176067
 20
5.698333
 30
0.0
 11
60.176067
 21
2.184666
 31
0.0
  0
LINE
  5
294
100
AcDbEntity
  8
Layer_1
 62
1
100
AcDbLine
 10
60.176067
 20
2.184666
 30
0.0
 11
60.946534
 21
2.184666
 31
0.0
  0
LINE
  5
295
100
AcDbEntity
  8
Layer_1
 62
1
100
AcDbLine
 10
60.946534
 20
2.184666
 30
0.0
 11
60.946534
 21
3.069433
 31
0.0
  0
LINE
  5
296
100
AcDbEntity
  8
Layer_1
 62
1
100
AcDbLine
 10
60.946534
 20
3.069433
 30
0.0
 11
61.788967
 21
2.184666
 31
0.0
  0
LINE
  5
297
100
AcDbEntity
  8
Layer_1
 62
1
100
AcDbLine
 10
61.788967
 20
2.184666
 30
0.0
 11
62.868467
 21
2.184666
 31
0.0
  0
LINE
  5
298
100
AcDbEntity
  8
Layer_1
 62
1
100
AcDbLine
 10
62.868467
 20
2.184666
 30
0.0
 11
61.712767
 21
3.353066
 31
0.0
  0
LINE
  5
299
100
AcDbEntity
  8
Layer_1
 62
1
100
AcDbLine
 10
61.712767
 20
3.353066
 30
0.0
 11
62.800734
 21
4.356366
 31
0.0
  0
LINE
  5
29a
100
AcDbEntity
  8
Layer_1
 62
1
100
AcDbLine
 10
62.800734
 20
4.356366
 30
0.0
 11
61.746634
 21
4.356366
 31
0.0
  0
LINE
  5
29b
100
AcDbEntity
  8
Layer_1
 62
1
100
AcDbLine
 10
61.746634
 20
4.356366
 30
0.0
 11
60.946534
 21
3.573200
 31
0.0
  0
LINE
  5
29c
100
AcDbEntity
  8
Layer_1
 62
1
100
AcDbLine
 10
60.946534
 20
3.573200
 30
0.0
 11
60.946534
 21
5.698333
 31
0.0
  0
LINE
  5
29d
100
AcDbEntity
  8
Layer_1
 62
1
100
AcDbLine
 10
60.946534
 20
5.698333
 30
0.0
 11
60.946534
 21
5.698333
 31
0.0
  0
ENDSEC
  0
SECTION
  2
OBJECTS
  0
DICTIONARY
  5
C
330
0
100
AcDbDictionary
  3
ACAD_GROUP
350
D
  3
ACAD_MLINESTYLE
350
17
  0
DICTIONARY
  5
D
330
C
100
AcDbDictionary
  0
DICTIONARY
  5
1A
330
C
100
AcDbDictionary
  0
DICTIONARY
  5
17
330
C
100
AcDbDictionary
  3
STANDARD
350
18
  0
DICTIONARY
  5
19
330
C
100
AcDbDictionary
  0
ENDSEC
  0
EOF
