<?xml version="1.0" encoding="UTF-8" standalone="no"?>
<!-- Created with Inkscape (http://www.inkscape.org/) -->

<svg
   xmlns:dc="http://purl.org/dc/elements/1.1/"
   xmlns:cc="http://creativecommons.org/ns#"
   xmlns:rdf="http://www.w3.org/1999/02/22-rdf-syntax-ns#"
   xmlns:svg="http://www.w3.org/2000/svg"
   xmlns="http://www.w3.org/2000/svg"
   xmlns:sodipodi="http://sodipodi.sourceforge.net/DTD/sodipodi-0.dtd"
   xmlns:inkscape="http://www.inkscape.org/namespaces/inkscape"
   width="140.30078mm"
   height="93.627937mm"
   viewBox="0 0 497.12875 331.75253"
   id="svg2"
   version="1.1"
   inkscape:version="0.91 r13725"
   sodipodi:docname="uno-with-breadboard.svg">
  <defs
     id="defs4">
    <marker
       style="overflow:visible"
       id="Arrow1Lend"
       refX="0"
       refY="0"
       orient="auto"
       inkscape:stockid="Arrow1Lend">
      <path
         transform="matrix(-0.8,0,0,-0.8,-10,0)"
         style="fill-rule:evenodd;stroke:#000000;stroke-width:1pt;marker-start:none"
         d="M 0,0 5,-5 -12.5,0 5,5 0,0 Z"
         id="path4521"
         inkscape:connector-curvature="0" />
    </marker>
  </defs>
  <sodipodi:namedview
     id="base"
     pagecolor="#ffffff"
     bordercolor="#666666"
     borderopacity="1.0"
     inkscape:pageopacity="0.0"
     inkscape:pageshadow="2"
     inkscape:zoom="1.4"
     inkscape:cx="301.89261"
     inkscape:cy="147.33395"
     inkscape:document-units="mm"
     inkscape:current-layer="layer1"
     showgrid="false"
     fit-margin-top="0"
     fit-margin-left="0"
     fit-margin-right="0"
     fit-margin-bottom="0"
     inkscape:window-width="1920"
     inkscape:window-height="1017"
     inkscape:window-x="-8"
     inkscape:window-y="-8"
     inkscape:window-maximized="1" />
  <metadata
     id="metadata7">
    <rdf:RDF>
      <cc:Work
         rdf:about="">
        <dc:format>image/svg+xml</dc:format>
        <dc:type
           rdf:resource="http://purl.org/dc/dcmitype/StillImage" />
        <dc:title></dc:title>
      </cc:Work>
    </rdf:RDF>
  </metadata>
  <g
     inkscape:label="Layer 1"
     inkscape:groupmode="layer"
     id="layer1"
     transform="translate(-4.1674804e-7,-720.60967)">
    <path
       style="fill:none;fill-opacity:1;stroke:#00ff00;stroke-width:1;stroke-linecap:round;stroke-linejoin:round;stroke-miterlimit:4;stroke-dasharray:none;stroke-opacity:1"
       d="m 29.100842,765.26654 0,233.45963 8.9792,0 8.9792,8.97923 116.729908,0 8.97921,-8.97923 40.40648,0 4.4896,-4.4896 -2e-5,-228.97003 z"
       id="path3132"
       inkscape:connector-curvature="0"
       sodipodi:nodetypes="cccccccccc" />
    <path
       transform="matrix(0,1,-1,0,0,0)"
       style="fill:none;fill-opacity:1;stroke:#0000ff;stroke-width:1;stroke-linecap:round;stroke-linejoin:round;stroke-miterlimit:4;stroke-dasharray:none;stroke-dashoffset:0;stroke-opacity:1"
       d="m 1004.3296,-56.038425 a 5.6034579,5.6034579 0 0 1 -5.60346,5.603457 5.6034579,5.6034579 0 0 1 -5.60346,-5.603457 5.6034579,5.6034579 0 0 1 5.60346,-5.603458 5.6034579,5.6034579 0 0 1 5.60346,5.603458 z"
       id="path4253" />
    <path
       transform="matrix(0,1,-1,0,0,0)"
       style="fill:none;fill-opacity:1;stroke:#0000ff;stroke-width:1;stroke-linecap:round;stroke-linejoin:round;stroke-miterlimit:4;stroke-dasharray:none;stroke-dashoffset:0;stroke-opacity:1"
       d="m 1004.3296,-154.80991 a 5.6034579,5.6034579 0 0 1 -5.60346,5.60346 5.6034579,5.6034579 0 0 1 -5.60346,-5.60346 5.6034579,5.6034579 0 0 1 5.60346,-5.60345 5.6034579,5.6034579 0 0 1 5.60346,5.60345 z"
       id="path4371" />
    <path
       transform="matrix(0,1,-1,0,0,0)"
       style="fill:none;fill-opacity:1;stroke:#0000ff;stroke-width:1;stroke-linecap:round;stroke-linejoin:round;stroke-miterlimit:4;stroke-dasharray:none;stroke-dashoffset:0;stroke-opacity:1"
       d="m 824.7453,-208.68521 a 5.6034579,5.6034579 0 0 1 -5.60345,5.60346 5.6034579,5.6034579 0 0 1 -5.60346,-5.60346 5.6034579,5.6034579 0 0 1 5.60346,-5.60346 5.6034579,5.6034579 0 0 1 5.60345,5.60346 z"
       id="path4355" />
    <path
       transform="matrix(0,1,-1,0,0,0)"
       style="fill:none;fill-opacity:1;stroke:#0000ff;stroke-width:1;stroke-linecap:round;stroke-linejoin:round;stroke-miterlimit:4;stroke-dasharray:none;stroke-dashoffset:0;stroke-opacity:1"
       d="m 820.25568,-38.07999 a 5.6034579,5.6034579 0 0 1 -5.60346,5.603458 5.6034579,5.6034579 0 0 1 -5.60346,-5.603458 5.6034579,5.6034579 0 0 1 5.60346,-5.603458 5.6034579,5.6034579 0 0 1 5.60346,5.603458 z"
       id="path4554" />
    <path
       style="opacity:1;fill:none;fill-opacity:1;stroke:#00ff00;stroke-width:1;stroke-linejoin:round;stroke-miterlimit:4;stroke-dasharray:none;stroke-opacity:1"
       d="m 276.74487,741.21039 191.33858,0 0,290.55121 -191.33858,0 z"
       id="rect5021" />
    <path
       style="opacity:1;fill:none;fill-opacity:1;stroke:#ff00ff;stroke-width:1;stroke-linejoin:round;stroke-miterlimit:4;stroke-dasharray:none;stroke-opacity:1"
       d="m 17.037627,721.10968 463.053503,0 c 9.16184,0 16.53762,7.37578 16.53762,16.53763 l 0,297.67729 c 0,9.1618 -7.37578,16.5376 -16.53762,16.5376 l -463.053503,0 c -9.1618453,0 -16.53762658,-7.3758 -16.53762658,-16.5376 l 0,-297.67729 c 0,-9.16185 7.37578128,-16.53763 16.53762658,-16.53763 z"
       id="rect5023" />
    <g
       id="g5769"
       style="fill:none;stroke:#ff0000;stroke-width:0.70866144;stroke-miterlimit:4;stroke-dasharray:none"
       transform="translate(-6.2153839,-0.63384109)">
      <g
         id="g5631"
         transform="matrix(0.09886812,0,0,0.09886812,8.9742588,974.82679)"
         style="fill:none;stroke:#ff0000;stroke-width:7.16774464;stroke-miterlimit:4;stroke-dasharray:none">
        <path
           style="fill:none;fill-rule:evenodd;stroke:#ff0000;stroke-width:7.16774464;stroke-linecap:butt;stroke-linejoin:miter;stroke-miterlimit:4;stroke-dasharray:none;stroke-opacity:1"
           d="m 506.64648,432.61914 c -43.3374,61.94962 -46.01563,88.24793 -64.6875,120.13477 -15.2576,19.48584 -38.31482,9.67848 -58.7539,-9.33203 11.85942,-14.85523 22.37085,-31.48833 30.22265,-46.58594 -5.94692,-0.77298 -16.57751,-7.85918 -16.45898,-15.08008 -6.26913,14.61579 -16.95319,31.12824 -28.95313,45.36328 -11.70796,-14.29727 -21.26494,-30.21398 -25.95312,-42.57617 -1.9057,7.97737 -12.5346,18.60626 -16.76367,18.2832 9.34577,14.27776 18.95688,27.57777 28.62695,39.30274 -14.32435,13.56305 -28.83782,22.09465 -38.95312,19.33789 -20.16449,-11.624 -42.13717,-61.86046 -56.4043,-120.625 -24.70924,51.67793 -67.22935,55.22032 -90.72852,-4.21485 -47.698,61.58361 -82.923114,138.92622 -115.078121,208.83789 4.585355,-3.33402 14.685214,-8.54322 23.898437,0 28.110744,-54.74138 47.062034,-119.33557 91.320594,-165.0837 24.14735,28.37081 50.77595,30.67981 83.7207,6.82589 7.64628,41.78882 28.22034,86.80961 60.14035,99.29883 18.26843,4.52579 38.77569,-8.07391 57.42382,-27.21484 38.31883,39.04973 75.89722,47.80083 100.0879,-13.39454 23.37269,19.38463 47.32328,13.6339 63.42578,6.66407 16.74751,32.23256 23.51987,56.88742 32.68164,92.70898 6.14919,-5.559 11.06495,-7.89472 22.91601,-1.09961 -16.00696,-78.31154 -42.63954,-135.77135 -81.73047,-211.55078 z m -2.78515,45.18945 c 9.83532,15.79047 18.58584,34.62298 22.76367,53.24219 -9.15752,9.38205 -29.95596,12.56374 -48.20117,-0.41797 4.71512,-18.92309 11.54621,-37.5716 25.4375,-52.82422 z"
           id="path5604"
           inkscape:connector-curvature="0"
           sodipodi:nodetypes="ccccccccccccccccccccccccccc" />
        <path
           style="fill:none;fill-rule:evenodd;stroke:#ff0000;stroke-width:7.16774464;stroke-linecap:butt;stroke-linejoin:miter;stroke-miterlimit:4;stroke-dasharray:none;stroke-opacity:1"
           d="m 97.370639,626.09392 c 147.455031,31.38401 309.555301,37.44503 452.255341,0.35714 -0.33497,7.33929 -0.52301,12.68982 4.61474,19.11699 -147.26229,34.44662 -315.71839,35.62632 -464.670979,0.38527 3.087452,-5.0594 9.880188,-8.77214 7.800898,-19.8594 z"
           id="path5627"
           inkscape:connector-curvature="0"
           sodipodi:nodetypes="ccccc" />
      </g>
      <g
         transform="translate(-4,4)"
         id="g5758"
         style="fill:none;stroke:#ff0000;stroke-width:0.70866144;stroke-miterlimit:4;stroke-dasharray:none">
        <path
           inkscape:connector-curvature="0"
           id="path5669"
           style="font-style:normal;font-variant:normal;font-weight:bold;font-stretch:normal;font-size:15px;line-height:125%;font-family:'Futura Std';-inkscape-font-specification:'Futura Std Bold';letter-spacing:0px;word-spacing:0px;fill:none;fill-opacity:1;stroke:#ff0000;stroke-width:0.70866144;stroke-linecap:butt;stroke-linejoin:miter;stroke-miterlimit:4;stroke-dasharray:none;stroke-opacity:1"
           d="m 88.485713,1019.1951 c 0,-0.825 0.615,-1.725 1.47,-1.725 0.735,0 1.185,0.6 1.08,1.455 -0.09,0.75 -0.48,1.65 -1.41,1.65 -0.735,0 -1.14,-0.645 -1.14,-1.38 z m 4.68,-3.24 -1.425,0 -0.15,0.795 c -0.45,-0.645 -1.08,-0.93 -1.845,-0.93 -1.86,0 -3.06,1.77 -3.06,3.615 0,1.545 1.2,2.79 2.52,2.79 0.9,0 1.53,-0.42 1.92,-0.87 0.12,0.48 0.51,0.855 0.93,0.87 0.72,0.03 1.59,-0.36 2.31,-1.32 0.6,-0.795 0.93,-1.95 0.93,-3.195 0,-1.425 -0.66,-2.61 -1.68,-3.51 -0.99,-0.9 -2.205,-1.305 -3.525,-1.305 -3.195,0 -5.73,2.565 -5.73,5.955 0,3.435 2.595,5.955 5.82,5.955 1.605,0 2.985,-0.48 4.035,-1.02 l -1.23,-0.99 c -0.48,0.3 -1.44,0.6 -2.685,0.6 -2.565,0 -4.53,-1.77 -4.53,-4.545 0,-2.625 1.755,-4.545 4.275,-4.545 2.295,0 4.155,1.395 4.02,3.93 -0.075,1.305 -0.93,2.55 -1.47,2.61 -0.435,0.045 -0.255,-0.615 -0.18,-0.99 l 0.75,-3.9 z" />
        <path
           inkscape:connector-curvature="0"
           id="path5671"
           style="font-style:normal;font-variant:normal;font-weight:bold;font-stretch:normal;font-size:15px;line-height:125%;font-family:'Futura Std';-inkscape-font-specification:'Futura Std Bold';letter-spacing:0px;word-spacing:0px;fill:none;fill-opacity:1;stroke:#ff0000;stroke-width:0.70866144;stroke-linecap:butt;stroke-linejoin:miter;stroke-miterlimit:4;stroke-dasharray:none;stroke-opacity:1"
           d="m 95.674229,1024.5051 2.925,0 0.945,-6.51 0.03,0 2.595001,6.51 1.17,0 2.715,-6.51 0.03,0 0.825,6.51 2.94,0 -1.71,-11.31 -2.925,0 -2.43,6.045 -2.295,-6.045 -2.895001,0 -1.92,11.31 z" />
        <path
           inkscape:connector-curvature="0"
           id="path5673"
           style="font-style:normal;font-variant:normal;font-weight:bold;font-stretch:normal;font-size:15px;line-height:125%;font-family:'Futura Std';-inkscape-font-specification:'Futura Std Bold';letter-spacing:0px;word-spacing:0px;fill:none;fill-opacity:1;stroke:#ff0000;stroke-width:0.70866144;stroke-linecap:butt;stroke-linejoin:miter;stroke-miterlimit:4;stroke-dasharray:none;stroke-opacity:1"
           d="m 113.74056,1020.3351 -3.84,4.17 3.585,0 1.98,-2.28 1.98,2.28 3.585,0 -3.84,-4.17 3.18,-3.525 -3.525,0 -1.38,1.59 -1.38,-1.59 -3.465,0 3.12,3.525 z" />
        <path
           inkscape:connector-curvature="0"
           id="path5675"
           style="font-style:normal;font-variant:normal;font-weight:bold;font-stretch:normal;font-size:15px;line-height:125%;font-family:'Futura Std';-inkscape-font-specification:'Futura Std Bold';letter-spacing:0px;word-spacing:0px;fill:none;fill-opacity:1;stroke:#ff0000;stroke-width:0.70866144;stroke-linecap:butt;stroke-linejoin:miter;stroke-miterlimit:4;stroke-dasharray:none;stroke-opacity:1"
           d="m 128.70892,1022.5401 0.735,1.965 3.135,0 -4.26,-11.31 -3.21,0 -4.35,11.31 3.12,0 0.78,-1.965 4.05,0 z m -0.795,-2.25 -2.445,0 1.215,-3.6 0.03,0 1.2,3.6 z" />
        <path
           inkscape:connector-curvature="0"
           id="path5677"
           style="font-style:normal;font-variant:normal;font-weight:bold;font-stretch:normal;font-size:15px;line-height:125%;font-family:'Futura Std';-inkscape-font-specification:'Futura Std Bold';letter-spacing:0px;word-spacing:0px;fill:none;fill-opacity:1;stroke:#ff0000;stroke-width:0.70866144;stroke-linecap:butt;stroke-linejoin:miter;stroke-miterlimit:4;stroke-dasharray:none;stroke-opacity:1"
           d="m 136.16767,1016.8101 -2.73,0 0,7.695 2.73,0 0,-7.695 z m -1.365,-4.485 c -0.84,0 -1.53,0.69 -1.53,1.53 0,0.84 0.69,1.53 1.53,1.53 0.84,0 1.53,-0.69 1.53,-1.53 0,-0.84 -0.69,-1.53 -1.53,-1.53 z" />
        <path
           inkscape:connector-curvature="0"
           id="path5679"
           style="font-style:normal;font-variant:normal;font-weight:bold;font-stretch:normal;font-size:15px;line-height:125%;font-family:'Futura Std';-inkscape-font-specification:'Futura Std Bold';letter-spacing:0px;word-spacing:0px;fill:none;fill-opacity:1;stroke:#ff0000;stroke-width:0.70866144;stroke-linecap:butt;stroke-linejoin:miter;stroke-miterlimit:4;stroke-dasharray:none;stroke-opacity:1"
           d="m 140.96368,1019.0601 1.545,0 0,-2.25 -1.545,0 0,-2.31 -2.73,0 0,2.31 -0.885,0 0,2.25 0.885,0 0,5.445 2.73,0 0,-5.445 z" />
        <path
           inkscape:connector-curvature="0"
           id="path5681"
           style="font-style:normal;font-variant:normal;font-weight:bold;font-stretch:normal;font-size:15px;line-height:125%;font-family:'Futura Std';-inkscape-font-specification:'Futura Std Bold';letter-spacing:0px;word-spacing:0px;fill:none;fill-opacity:1;stroke:#ff0000;stroke-width:0.70866144;stroke-linecap:butt;stroke-linejoin:miter;stroke-miterlimit:4;stroke-dasharray:none;stroke-opacity:1"
           d="m 143.36931,1012.0551 0,12.45 2.73,0 0,-3.945 c 0,-0.9 0.345,-1.83 1.425,-1.83 1.095,0 1.23,0.93 1.23,1.83 l 0,3.945 2.73,0 0,-4.71 c 0,-1.95 -0.945,-3.24 -2.895,-3.24 -1.065,0 -1.83,0.39 -2.46,1.23 l -0.03,0 0,-5.73 -2.73,0 z" />
        <path
           inkscape:connector-curvature="0"
           id="path5683"
           style="font-style:normal;font-variant:normal;font-weight:bold;font-stretch:normal;font-size:15px;line-height:125%;font-family:'Futura Std';-inkscape-font-specification:'Futura Std Bold';letter-spacing:0px;word-spacing:0px;fill:none;fill-opacity:1;stroke:#ff0000;stroke-width:0.70866144;stroke-linecap:butt;stroke-linejoin:miter;stroke-miterlimit:4;stroke-dasharray:none;stroke-opacity:1"
           d="m 156.00165,1016.8101 -2.73,0 0,7.695 2.73,0 0,-3.99 c 0,-0.96 0.315,-1.785 1.425,-1.785 1.35,0 1.23,1.29 1.23,2.025 l 0,3.75 2.73,0 0,-4.755 c 0,-1.89 -0.825,-3.195 -2.895,-3.195 -1.065,0 -1.83,0.315 -2.46,1.245 l -0.03,0 0,-0.99 z" />
        <path
           inkscape:connector-curvature="0"
           id="path5685"
           style="font-style:normal;font-variant:normal;font-weight:bold;font-stretch:normal;font-size:15px;line-height:125%;font-family:'Futura Std';-inkscape-font-specification:'Futura Std Bold';letter-spacing:0px;word-spacing:0px;fill:none;fill-opacity:1;stroke:#ff0000;stroke-width:0.70866144;stroke-linecap:butt;stroke-linejoin:miter;stroke-miterlimit:4;stroke-dasharray:none;stroke-opacity:1"
           d="m 165.37899,1019.5401 c 0.165,-0.795 0.825,-1.215 1.62,-1.215 0.735,0 1.41,0.48 1.545,1.215 l -3.165,0 z m 5.7,1.29 c 0,-2.625 -1.545,-4.275 -4.215,-4.275 -2.505,0 -4.26,1.545 -4.26,4.11 0,2.655 1.905,4.095 4.455,4.095 0.885,0 1.755,-0.21 2.46,-0.645 0.705,-0.435 1.245,-1.095 1.455,-1.995 l -2.625,0 c -0.3,0.51 -0.72,0.705 -1.305,0.705 -1.125,0 -1.71,-0.6 -1.71,-1.71 l 5.745,0 0,-0.285 z" />
      </g>
      <g
         transform="translate(-4,2)"
         id="g5741"
         style="fill:none;stroke:#ff0000;stroke-width:0.70866144;stroke-miterlimit:4;stroke-dasharray:none">
        <path
           inkscape:connector-curvature="0"
           id="path5687"
           style="font-style:normal;font-variant:normal;font-weight:bold;font-stretch:normal;font-size:15px;line-height:125%;font-family:'Futura Std';-inkscape-font-specification:'Futura Std Bold';letter-spacing:0px;word-spacing:0px;fill:none;fill-opacity:1;stroke:#ff0000;stroke-width:0.70866144;stroke-linecap:butt;stroke-linejoin:miter;stroke-miterlimit:4;stroke-dasharray:none;stroke-opacity:1"
           d="m 87.090713,1035.5601 -3.03,0 4.02,7.695 1.77,0 1.905,-4.215 1.905,4.215 1.77,0 4.02,-7.695 -3.015,0 -1.935,4.17 -1.935,-4.17 -1.62,0 -1.935,4.17 -1.92,-4.17 z" />
        <path
           inkscape:connector-curvature="0"
           id="path5689"
           style="font-style:normal;font-variant:normal;font-weight:bold;font-stretch:normal;font-size:15px;line-height:125%;font-family:'Futura Std';-inkscape-font-specification:'Futura Std Bold';letter-spacing:0px;word-spacing:0px;fill:none;fill-opacity:1;stroke:#ff0000;stroke-width:0.70866144;stroke-linecap:butt;stroke-linejoin:miter;stroke-miterlimit:4;stroke-dasharray:none;stroke-opacity:1"
           d="m 102.03212,1035.5601 -3.030001,0 4.020001,7.695 1.77,0 1.905,-4.215 1.905,4.215 1.77,0 4.02,-7.695 -3.015,0 -1.935,4.17 -1.935,-4.17 -1.62,0 -1.935,4.17 -1.92,-4.17 z" />
        <path
           inkscape:connector-curvature="0"
           id="path5691"
           style="font-style:normal;font-variant:normal;font-weight:bold;font-stretch:normal;font-size:15px;line-height:125%;font-family:'Futura Std';-inkscape-font-specification:'Futura Std Bold';letter-spacing:0px;word-spacing:0px;fill:none;fill-opacity:1;stroke:#ff0000;stroke-width:0.70866144;stroke-linecap:butt;stroke-linejoin:miter;stroke-miterlimit:4;stroke-dasharray:none;stroke-opacity:1"
           d="m 116.97353,1035.5601 -3.03,0 4.02,7.695 1.77,0 1.905,-4.215 1.905,4.215 1.77,0 4.02,-7.695 -3.015,0 -1.935,4.17 -1.935,-4.17 -1.62,0 -1.935,4.17 -1.92,-4.17 z" />
        <path
           inkscape:connector-curvature="0"
           id="path5693"
           style="font-style:normal;font-variant:normal;font-weight:bold;font-stretch:normal;font-size:15px;line-height:125%;font-family:'Futura Std';-inkscape-font-specification:'Futura Std Bold';letter-spacing:0px;word-spacing:0px;fill:none;fill-opacity:1;stroke:#ff0000;stroke-width:0.70866144;stroke-linecap:butt;stroke-linejoin:miter;stroke-miterlimit:4;stroke-dasharray:none;stroke-opacity:1"
           d="m 130.31298,1040.0451 c -0.975,0 -1.755,0.78 -1.755,1.755 0,0.96 0.78,1.755 1.755,1.755 0.975,0 1.755,-0.795 1.755,-1.755 0,-0.975 -0.78,-1.755 -1.755,-1.755 z" />
        <path
           inkscape:connector-curvature="0"
           id="path5695"
           style="font-style:normal;font-variant:normal;font-weight:bold;font-stretch:normal;font-size:15px;line-height:125%;font-family:'Futura Std';-inkscape-font-specification:'Futura Std Bold';letter-spacing:0px;word-spacing:0px;fill:none;fill-opacity:1;stroke:#ff0000;stroke-width:0.70866144;stroke-linecap:butt;stroke-linejoin:miter;stroke-miterlimit:4;stroke-dasharray:none;stroke-opacity:1"
           d="m 136.51923,1035.5601 -2.73,0 0,7.695 2.73,0 0,-3.675 c 0,-0.855 0,-2.16 1.215,-2.16 1.215,0 1.215,1.305 1.215,2.16 l 0,3.675 2.73,0 0,-3.675 c 0,-0.915 0.045,-2.1 1.305,-2.1 1.155,0 1.125,1.305 1.125,2.1 l 0,3.675 2.73,0 0,-4.905 c 0,-1.77 -0.675,-3.045 -2.625,-3.045 -1.05,0 -2.085,0.51 -2.61,1.47 -0.555,-1.02 -1.515,-1.47 -2.625,-1.47 -0.99,0 -1.785,0.36 -2.43,1.215 l -0.03,0 0,-0.96 z" />
        <path
           inkscape:connector-curvature="0"
           id="path5697"
           style="font-style:normal;font-variant:normal;font-weight:bold;font-stretch:normal;font-size:15px;line-height:125%;font-family:'Futura Std';-inkscape-font-specification:'Futura Std Bold';letter-spacing:0px;word-spacing:0px;fill:none;fill-opacity:1;stroke:#ff0000;stroke-width:0.70866144;stroke-linecap:butt;stroke-linejoin:miter;stroke-miterlimit:4;stroke-dasharray:none;stroke-opacity:1"
           d="m 151.32845,1039.0851 -3.84,4.17 3.585,0 1.98,-2.28 1.98,2.28 3.585,0 -3.84,-4.17 3.18,-3.525 -3.525,0 -1.38,1.59 -1.38,-1.59 -3.465,0 3.12,3.525 z" />
        <path
           inkscape:connector-curvature="0"
           id="path5699"
           style="font-style:normal;font-variant:normal;font-weight:bold;font-stretch:normal;font-size:15px;line-height:125%;font-family:'Futura Std';-inkscape-font-specification:'Futura Std Bold';letter-spacing:0px;word-spacing:0px;fill:none;fill-opacity:1;stroke:#ff0000;stroke-width:0.70866144;stroke-linecap:butt;stroke-linejoin:miter;stroke-miterlimit:4;stroke-dasharray:none;stroke-opacity:1"
           d="m 163.32681,1037.6751 c 1.11,0 1.755,0.795 1.755,1.74 0,0.975 -0.645,1.725 -1.755,1.725 -1.11,0 -1.755,-0.75 -1.755,-1.725 0,-0.945 0.645,-1.74 1.755,-1.74 z m 4.395,-2.115 -2.73,0 0,0.75 c -0.57,-0.675 -1.5,-1.005 -2.385,-1.005 -2.28,0 -3.855,1.89 -3.855,4.095 0,2.205 1.605,4.11 3.885,4.11 0.9,0 1.845,-0.345 2.325,-1.11 l 0.03,0 0,0.855 2.73,0 0,-7.695 z" />
        <path
           inkscape:connector-curvature="0"
           id="path5701"
           style="font-style:normal;font-variant:normal;font-weight:bold;font-stretch:normal;font-size:15px;line-height:125%;font-family:'Futura Std';-inkscape-font-specification:'Futura Std Bold';letter-spacing:0px;word-spacing:0px;fill:none;fill-opacity:1;stroke:#ff0000;stroke-width:0.70866144;stroke-linecap:butt;stroke-linejoin:miter;stroke-miterlimit:4;stroke-dasharray:none;stroke-opacity:1"
           d="m 172.26142,1035.5601 -2.73,0 0,7.695 2.73,0 0,-7.695 z m -1.365,-4.485 c -0.84,0 -1.53,0.69 -1.53,1.53 0,0.84 0.69,1.53 1.53,1.53 0.84,0 1.53,-0.69 1.53,-1.53 0,-0.84 -0.69,-1.53 -1.53,-1.53 z" />
        <path
           inkscape:connector-curvature="0"
           id="path5703"
           style="font-style:normal;font-variant:normal;font-weight:bold;font-stretch:normal;font-size:15px;line-height:125%;font-family:'Futura Std';-inkscape-font-specification:'Futura Std Bold';letter-spacing:0px;word-spacing:0px;fill:none;fill-opacity:1;stroke:#ff0000;stroke-width:0.70866144;stroke-linecap:butt;stroke-linejoin:miter;stroke-miterlimit:4;stroke-dasharray:none;stroke-opacity:1"
           d="m 177.05743,1037.8101 1.545,0 0,-2.25 -1.545,0 0,-2.31 -2.73,0 0,2.31 -0.885,0 0,2.25 0.885,0 0,5.445 2.73,0 0,-5.445 z" />
        <path
           inkscape:connector-curvature="0"
           id="path5705"
           style="font-style:normal;font-variant:normal;font-weight:bold;font-stretch:normal;font-size:15px;line-height:125%;font-family:'Futura Std';-inkscape-font-specification:'Futura Std Bold';letter-spacing:0px;word-spacing:0px;fill:none;fill-opacity:1;stroke:#ff0000;stroke-width:0.70866144;stroke-linecap:butt;stroke-linejoin:miter;stroke-miterlimit:4;stroke-dasharray:none;stroke-opacity:1"
           d="m 179.46306,1030.8051 0,12.45 2.73,0 0,-3.945 c 0,-0.9 0.345,-1.83 1.425,-1.83 1.095,0 1.23,0.93 1.23,1.83 l 0,3.945 2.73,0 0,-4.71 c 0,-1.95 -0.945,-3.24 -2.895,-3.24 -1.065,0 -1.83,0.39 -2.46,1.23 l -0.03,0 0,-5.73 -2.73,0 z" />
        <path
           inkscape:connector-curvature="0"
           id="path5707"
           style="font-style:normal;font-variant:normal;font-weight:bold;font-stretch:normal;font-size:15px;line-height:125%;font-family:'Futura Std';-inkscape-font-specification:'Futura Std Bold';letter-spacing:0px;word-spacing:0px;fill:none;fill-opacity:1;stroke:#ff0000;stroke-width:0.70866144;stroke-linecap:butt;stroke-linejoin:miter;stroke-miterlimit:4;stroke-dasharray:none;stroke-opacity:1"
           d="m 192.0954,1035.5601 -2.73,0 0,7.695 2.73,0 0,-3.99 c 0,-0.96 0.315,-1.785 1.425,-1.785 1.35,0 1.23,1.29 1.23,2.025 l 0,3.75 2.73,0 0,-4.755 c 0,-1.89 -0.825,-3.195 -2.895,-3.195 -1.065,0 -1.83,0.315 -2.46,1.245 l -0.03,0 0,-0.99 z" />
        <path
           inkscape:connector-curvature="0"
           id="path5709"
           style="font-style:normal;font-variant:normal;font-weight:bold;font-stretch:normal;font-size:15px;line-height:125%;font-family:'Futura Std';-inkscape-font-specification:'Futura Std Bold';letter-spacing:0px;word-spacing:0px;fill:none;fill-opacity:1;stroke:#ff0000;stroke-width:0.70866144;stroke-linecap:butt;stroke-linejoin:miter;stroke-miterlimit:4;stroke-dasharray:none;stroke-opacity:1"
           d="m 201.47274,1038.2901 c 0.165,-0.795 0.825,-1.215 1.62,-1.215 0.735,0 1.41,0.48 1.545,1.215 l -3.165,0 z m 5.7,1.29 c 0,-2.625 -1.545,-4.275 -4.215,-4.275 -2.505,0 -4.26,1.545 -4.26,4.11 0,2.655 1.905,4.095 4.455,4.095 0.885,0 1.755,-0.21 2.46,-0.645 0.705,-0.435 1.245,-1.095 1.455,-1.995 l -2.625,0 c -0.3,0.51 -0.72,0.705 -1.305,0.705 -1.125,0 -1.71,-0.6 -1.71,-1.71 l 5.745,0 0,-0.285 z" />
        <path
           inkscape:connector-curvature="0"
           id="path5711"
           style="font-style:normal;font-variant:normal;font-weight:bold;font-stretch:normal;font-size:15px;line-height:125%;font-family:'Futura Std';-inkscape-font-specification:'Futura Std Bold';letter-spacing:0px;word-spacing:0px;fill:none;fill-opacity:1;stroke:#ff0000;stroke-width:0.70866144;stroke-linecap:butt;stroke-linejoin:miter;stroke-miterlimit:4;stroke-dasharray:none;stroke-opacity:1"
           d="m 210.08837,1040.0451 c -0.975,0 -1.755,0.78 -1.755,1.755 0,0.96 0.78,1.755 1.755,1.755 0.975,0 1.755,-0.795 1.755,-1.755 0,-0.975 -0.78,-1.755 -1.755,-1.755 z" />
        <path
           inkscape:connector-curvature="0"
           id="path5713"
           style="font-style:normal;font-variant:normal;font-weight:bold;font-stretch:normal;font-size:15px;line-height:125%;font-family:'Futura Std';-inkscape-font-specification:'Futura Std Bold';letter-spacing:0px;word-spacing:0px;fill:none;fill-opacity:1;stroke:#ff0000;stroke-width:0.70866144;stroke-linecap:butt;stroke-linejoin:miter;stroke-miterlimit:4;stroke-dasharray:none;stroke-opacity:1"
           d="m 213.51962,1035.5601 0,4.635 c 0,2.535 1.785,3.315 4.095,3.315 2.31,0 4.095,-0.78 4.095,-3.315 l 0,-4.635 -2.73,0 0,4.11 c 0,0.975 -0.24,1.665 -1.365,1.665 -1.125,0 -1.365,-0.69 -1.365,-1.665 l 0,-4.11 -2.73,0 z" />
        <path
           inkscape:connector-curvature="0"
           id="path5715"
           style="font-style:normal;font-variant:normal;font-weight:bold;font-stretch:normal;font-size:15px;line-height:125%;font-family:'Futura Std';-inkscape-font-specification:'Futura Std Bold';letter-spacing:0px;word-spacing:0px;fill:none;fill-opacity:1;stroke:#ff0000;stroke-width:0.70866144;stroke-linecap:butt;stroke-linejoin:miter;stroke-miterlimit:4;stroke-dasharray:none;stroke-opacity:1"
           d="m 226.16767,1030.8051 -2.73,0 0,12.45 2.73,0 0,-3.135 2.985,3.135 3.825,0 -4.095,-4.14 3.855,-3.555 -3.735,0 -2.835,2.775 0,-7.53 z" />
      </g>
    </g>
  </g>
</svg>
